<?xml version="1.0" encoding="utf-8"?>
<!-- Generator: Adobe Illustrator 25.2.0, SVG Export Plug-In . SVG Version: 6.00 Build 0)  -->
<svg version="1.1" id="Layer_1" xmlns="http://www.w3.org/2000/svg" xmlns:xlink="http://www.w3.org/1999/xlink" x="0px" y="0px"
	 viewBox="0 0 1170.4 500" style="enable-background:new 0 0 1170.4 500;" xml:space="preserve">
<style type="text/css">
	.st0{fill:#EBEBEB;}
	.st1{fill:#263238;}
	.st2{fill:#C7C7C7;}
	.st3{fill:#A6A6A6;}
	.st4{fill:#FFC727;}
	.st5{fill:#F68D42;}
	.st6{fill:#C35531;}
	.st7{opacity:0.2;}
	.st8{opacity:0.1;enable-background:new    ;}
	.st9{fill:#F2693E;}
	.st10{opacity:0.28;fill:#FFFFFF;enable-background:new    ;}
	.st11{fill:#FBAD18;}
	.st12{opacity:0.3;fill:#FFFFFF;enable-background:new    ;}
	.st13{enable-background:new    ;}
</style>
<g id="freepik--background-complete--inject-2">
	<path class="st0" d="M427.8,317.1l-14.8,0.3l-7.5,0.1c-2.5,0-5,0-7.5,0h-0.4V317v-12.6V304h0.5l15,0.1c5,0,10,0.1,15,0.2h0.3v0.3
		c0,2.1-0.1,4.3-0.1,6.4L427.8,317.1z M427.8,317.1l-0.1-6.4c0-2.1-0.1-4.2-0.1-6.3l0.3,0.3c-5,0.1-10,0.2-15,0.2H398l0.5-0.5V317
		l-0.5-0.4c2.5,0,4.9,0,7.4,0l7.4,0.1L427.8,317.1z"/>
	<path class="st0" d="M411.2,333.1l-14.8,0.3l-7.5,0.1c-2.5,0-5,0-7.6,0h-0.4V333l-0.1-12.6v-0.5h0.5l14.9,0.1c5,0,10,0.1,14.9,0.2
		h0.3v0.3c0,2.1-0.1,4.3-0.1,6.4L411.2,333.1z M411.2,333.1l-0.1-6.4c0-2.1-0.1-4.2-0.1-6.3l0.3,0.3c-5,0.1-10,0.2-15,0.2l-15,0.1
		l0.5-0.5v12.6l-0.5-0.4c2.5,0,4.9,0,7.4,0l7.4,0.1L411.2,333.1z"/>
	<path class="st0" d="M411.2,59.7L396.3,60l-7.5,0.1c-2.5,0-5,0-7.5,0.1h-0.4v-0.5l-0.1-12.6v-0.5h0.5h14.9c5,0,10,0.1,14.9,0.2h0.3
		v0.3c0,2.1-0.1,4.3-0.1,6.4L411.2,59.7z M411.2,59.7l-0.1-6.4c0-2.1-0.1-4.2-0.1-6.3l0.3,0.3c-5,0-10,0.2-15,0.2l-15,0.1l0.5-0.5
		v12.6l-0.5-0.4c2.5,0,4.9,0,7.4,0l7.4,0.1L411.2,59.7z"/>
	<path class="st0" d="M789.1,59.7L774.3,60l-7.5,0.1c-2.5,0-5,0-7.5,0.1h-0.4v-0.5V47.1v-0.5h0.5l15,0.1c5,0,10,0.1,15,0.2h0.3v0.3
		c0,2.1-0.1,4.3-0.1,6.4L789.1,59.7z M789.1,59.7l-0.1-6.4c0-2.1-0.1-4.2-0.1-6.3l0.3,0.3c-5,0-10,0.2-15,0.2l-15,0.1l0.5-0.5v12.6
		l-0.5-0.4c2.5,0,4.9,0,7.4,0l7.4,0.1L789.1,59.7z"/>
	<path class="st0" d="M772.5,75.6l-14.8,0.3l-7.5,0.1c-2.5,0-5,0-7.5,0.1h-0.4v-0.4L742.1,63v-0.5h0.5l15,0.1c5,0,10,0.1,15,0.2h0.3
		V63c0,2.1-0.1,4.3-0.1,6.4L772.5,75.6z M772.5,75.6l-0.1-6.4c0-2.1-0.1-4.2-0.1-6.3l0.3,0.3c-5,0-10,0.2-15,0.2l-15,0.1l0.5-0.5
		v12.6l-0.5-0.4c2.5,0,4.9,0,7.4,0l7.4,0.1L772.5,75.6z"/>
	<path class="st0" d="M695.9,223.4l-14.8,0.3l-7.5,0.1c-2.5,0-5,0-7.5,0h-0.5v-0.4v-12.6v-0.5h0.5l14.9,0.1c5,0,10,0.1,15,0.2h0.3
		v0.3c0,2.1-0.1,4.3-0.1,6.4L695.9,223.4z M695.9,223.4l-0.1-6.4c0-2.1-0.1-4.2-0.1-6.3l0.3,0.3c-5,0-10,0.2-15,0.2l-14.9,0.1
		l0.5-0.5v12.6L666,223c2.5,0,4.9,0,7.4,0.1l7.4,0.1L695.9,223.4z"/>
	<path class="st0" d="M679.2,239.4l-14.8,0.3l-7.5,0.1c-2.5,0.1-5,0-7.5,0.1h-0.5v-0.4v-12.6v-0.5h0.5l15,0.1c5,0,10,0.1,14.9,0.2
		h0.3v0.3c0,2.1-0.1,4.3-0.1,6.4L679.2,239.4z M679.2,239.4l-0.1-6.4c0-2.1-0.1-4.2-0.1-6.3l0.3,0.3c-5,0.1-10,0.2-14.9,0.2l-15,0.1
		l0.5-0.5l-0.1,12.6l-0.4-0.4c2.5,0,4.9,0,7.4,0.1l7.4,0.1L679.2,239.4z"/>
	<path class="st0" d="M662.6,223.4l-14.8,0.3l-7.5,0.1c-2.5,0-5,0-7.5,0h-0.5v-0.4l-0.1-12.6v-0.5h0.5l14.9,0.1c5,0,10,0.1,15,0.2
		h0.3v0.3c0,2.1-0.1,4.3-0.1,6.4L662.6,223.4z M662.6,223.4l-0.1-6.4c0-2.1-0.1-4.2-0.1-6.3l0.3,0.3c-5,0-10,0.2-15,0.2l-14.9,0.1
		l0.5-0.5v12.6l-0.4-0.4c2.5,0,4.9,0,7.4,0.1l7.4,0.1L662.6,223.4z"/>
	<path class="st0" d="M789.1,333.1l-14.8,0.3l-7.5,0.1c-2.5,0-5,0-7.5,0h-0.4V333v-12.6v-0.5h0.5l14.9,0.1c5,0,10,0.1,15,0.2h0.3
		v0.3c0,2.1-0.1,4.3-0.1,6.4L789.1,333.1z M789.1,333.1l-0.1-6.4c0-2.1-0.1-4.2-0.1-6.3l0.3,0.3c-5,0.1-10,0.2-15,0.2l-15,0.1
		l0.5-0.5v12.6l-0.5-0.4c2.5,0,4.9,0,7.4,0l7.4,0.1L789.1,333.1z"/>
	<path class="st0" d="M535.1,97.3l-14.8,0.3l-7.5,0.1c-2.5,0-5,0-7.5,0.1h-0.4v-0.4l-0.1-12.6v-0.5h0.5l14.9,0.1c5,0,10,0.1,15,0.2
		h0.3v0.3c0,2.1-0.1,4.3-0.1,6.4L535.1,97.3z M535.1,97.3l-0.1-6.4c0-2.1-0.1-4.2-0.1-6.3l0.3,0.3c-5,0-10,0.2-15,0.2l-14.9,0.1
		l0.5-0.5l-0.1,12.6l-0.4-0.4c2.5,0,4.9,0,7.4,0l7.4,0.1L535.1,97.3z"/>
</g>
<g id="freepik--Floor--inject-2">
	<polygon class="st1" points="378.6,402.3 430.2,402.1 481.9,402 585.2,401.8 688.5,402 740.2,402.1 791.8,402.3 740.2,402.6 
		688.5,402.7 585.2,402.8 481.9,402.7 430.2,402.6 	"/>
</g>
<g id="freepik--Shadow--inject-2">
	<ellipse class="st0" cx="484.6" cy="436.9" rx="188.5" ry="19.9"/>
</g>
<g id="freepik--mouse-house--inject-2">
	<path class="st2" d="M941.4,402.3H789.3c0-20.6-7.8-125.1,76-125.1S941.4,381.8,941.4,402.3z"/>
	<path class="st3" d="M894.1,282.3c-2.5-0.2-5.1-0.3-7.8-0.3c-80.6,0-73.2,100.6-73.2,120.4h-23.8c0-20.6-7.8-125.1,76-125.1
		C875.2,277.1,884.9,278.8,894.1,282.3z"/>
</g>
<g>
	<path class="st1" d="M193.4,70.2c-1.5,0-3-0.3-4.3-0.9s-2.4-1.4-3.3-2.4c-0.9-1-1.6-2.2-2.1-3.5c-0.5-1.3-0.8-2.6-0.8-4
		s0.3-2.7,0.8-4c1-2.6,3-4.7,5.6-5.8c1.3-0.6,2.8-0.9,4.3-0.9s3,0.3,4.3,0.9c1.3,0.6,2.4,1.4,3.3,2.4c0.9,1,1.6,2.2,2.1,3.5
		s0.8,2.6,0.8,4s-0.3,2.7-0.8,4c-1,2.6-3,4.7-5.6,5.8C196.3,69.8,194.9,70.2,193.4,70.2z M187.9,59.4c0,0.8,0.1,1.6,0.4,2.4
		c0.2,0.7,0.6,1.4,1.1,2.1c0.5,0.6,1.1,1.1,1.8,1.4c0.7,0.4,1.6,0.6,2.4,0.5c0.9,0,1.7-0.2,2.5-0.6c0.7-0.4,1.3-0.9,1.7-1.5
		c0.5-0.6,0.8-1.3,1-2.1s0.4-1.6,0.4-2.4c0-0.8-0.1-1.6-0.4-2.4c-0.2-0.7-0.6-1.4-1.1-2s-1.1-1.1-1.8-1.4c-0.7-0.4-1.6-0.6-2.4-0.6
		c-0.8,0-1.7,0.2-2.4,0.5c-0.7,0.4-1.3,0.9-1.7,1.5c-0.5,0.6-0.8,1.3-1,2C188,57.7,187.9,58.5,187.9,59.4z"/>
	<path class="st1" d="M214,70.3c-1.2,0-2.4-0.2-3.6-0.7c-1-0.4-1.9-1-2.7-1.8c-0.7-0.7-1.3-1.6-1.6-2.6c-0.7-2-0.7-4.2,0-6.2
		c0.4-1,0.9-1.9,1.6-2.6c0.8-0.8,1.7-1.4,2.7-1.8c2.3-0.9,4.9-0.9,7.1,0c1,0.4,1.9,1,2.6,1.8c0.7,0.8,1.3,1.6,1.7,2.6s0.6,2,0.6,3.1
		s-0.2,2.1-0.6,3.1c-0.4,1-0.9,1.9-1.6,2.6c-0.8,0.8-1.7,1.4-2.6,1.8C216.5,70.1,215.3,70.3,214,70.3z M210.5,62.1
		c-0.1,1.1,0.3,2.2,1,3c0.6,0.7,1.6,1.1,2.6,1.1c0.5,0,0.9-0.1,1.4-0.3c0.4-0.2,0.8-0.5,1.1-0.8c0.3-0.4,0.6-0.8,0.7-1.3
		c0.2-0.5,0.3-1.1,0.3-1.7c0.1-1.1-0.3-2.2-1-3c-0.6-0.7-1.5-1.1-2.5-1.1s-1.9,0.4-2.5,1.1c-0.3,0.4-0.6,0.8-0.7,1.3
		C210.6,61,210.5,61.5,210.5,62.1z"/>
	<path class="st1" d="M234.8,70.3c-1.1,0-2.2-0.2-3.1-0.8c-0.9-0.5-1.5-1.2-2-2.1v8.9h-4.8V54.2h4.2v2.5c0.5-0.9,1.3-1.6,2.2-2.1
		s2-0.8,3.1-0.8c1,0,2,0.2,2.9,0.6c0.9,0.4,1.7,1,2.3,1.7c0.7,0.8,1.2,1.6,1.5,2.6c0.4,1,0.6,2.1,0.6,3.2c0,1.1-0.2,2.2-0.5,3.3
		c-0.3,0.9-0.8,1.8-1.4,2.6c-0.6,0.7-1.3,1.3-2.2,1.7C236.6,70.1,235.7,70.3,234.8,70.3z M233.1,66.3c0.5,0,1-0.1,1.4-0.3
		c0.4-0.2,0.8-0.5,1.1-0.9s0.6-0.9,0.7-1.3c0.2-0.5,0.3-1.1,0.2-1.6c0-0.5-0.1-1.1-0.3-1.6s-0.4-0.9-0.8-1.3
		c-0.3-0.4-0.7-0.6-1.2-0.8s-1-0.3-1.5-0.3c-0.7,0-1.3,0.2-1.9,0.6c-0.6,0.4-1.1,0.9-1.4,1.6v3.2c0.3,0.8,0.8,1.5,1.5,2
		C231.6,66,232.4,66.2,233.1,66.3L233.1,66.3z"/>
	<path class="st1" d="M250.2,70.3c-1.4,0-2.7-0.2-4-0.7c-1.2-0.4-2.3-1-3.3-1.9l1.7-2.9c0.9,0.6,1.8,1.1,2.8,1.5
		c0.8,0.4,1.7,0.5,2.6,0.6c0.5,0,1-0.1,1.4-0.3c0.3-0.2,0.5-0.6,0.5-1s-0.3-0.8-0.6-1c-0.7-0.4-1.5-0.6-2.3-0.8
		c-1.1-0.3-2-0.6-2.7-0.9c-0.6-0.2-1.2-0.5-1.8-0.9c-0.4-0.3-0.8-0.7-1-1.2s-0.3-1-0.3-1.6c0-1.5,0.6-2.9,1.8-3.9
		c0.6-0.5,1.3-0.8,2-1.1c0.8-0.3,1.7-0.4,2.5-0.4c1.1,0,2.2,0.2,3.3,0.5c1.1,0.4,2.1,1,3,1.7l-1.9,2.9c-0.7-0.5-1.6-1-2.4-1.3
		c-0.6-0.3-1.3-0.4-2-0.4c-0.5,0-0.9,0.1-1.3,0.3c-0.4,0.2-0.6,0.6-0.5,1c0,0.4,0.2,0.8,0.6,1c0.7,0.3,1.4,0.6,2.2,0.7
		c1,0.2,1.9,0.5,2.8,0.9c0.7,0.2,1.3,0.6,1.9,1c0.4,0.3,0.8,0.8,1.1,1.3c0.2,0.5,0.3,1.1,0.3,1.7c0.1,1.5-0.6,2.9-1.8,3.7
		C253.5,69.9,251.9,70.4,250.2,70.3z"/>
	<path class="st1" d="M258.9,70v-4.9h3.9V70H258.9z"/>
	<path class="st1" d="M266.1,70v-4.9h3.9V70H266.1z"/>
	<path class="st1" d="M273.3,70v-4.9h3.9V70H273.3z"/>
</g>
<g id="freepik--Mouse--inject-2">
	<path class="st4" d="M430.8,315c-2.5-0.1-14.4-1.4-16.5-3.3c-5.7-5.2-9-8.6-9.5-11.9c-0.5-2.9,1.8-8.3,1.9-11.2
		c0-3,5.1-1.3,6.8-1.5c3.6-0.4,4.4,1.7,6.2,2.4c1.3,0.5,5.7-1.9,8.9,0.3s2.5,6,2.5,6s7.3,3.3,7.4,7.3
		C438.6,307.6,433.6,315.2,430.8,315z"/>
	<path class="st5" d="M430.8,315c-2.5-0.1-14.4-1.4-16.5-3.3c-5.7-5.2-9-8.6-9.5-11.9c-0.5-2.9,1.8-8.3,1.9-11.2
		c0-3,5.1-1.3,6.8-1.5c3.6-0.4,4.4,1.7,6.2,2.4c1.3,0.5,5.7-1.9,8.9,0.3s2.5,6,2.5,6s7.3,3.3,7.4,7.3
		C438.6,307.6,433.6,315.2,430.8,315z"/>
	<path class="st4" d="M290.4,408.8c-3.6,4.2-18.5,7.2-27.2,0.3c-8.7-6.8-13.9-29.5-13.7-37.2c0.2-7.6,22.6-101.3,28.9-123.6
		c6.4-22.3-4-33.4-11.3-38.7s-22.7,0.5-25.8,3.8s-4.5,12.2-4.5,12.2s2.6-8,7.3-10.6s15.1-4.5,20.5-1.5c5.4,3.1,13.4,16.7,8.9,28.6
		C269,254,242,362,241.4,372.1c-0.8,12.1,6.1,33.5,16.4,42.7s28.1,8.4,30,9s2.2,3.4,2.2,3.4L290.4,408.8z"/>
	<path class="st6" d="M290.4,408.8c-3.6,4.2-18.5,7.2-27.2,0.3c-8.7-6.8-13.9-29.5-13.7-37.2c0.2-7.6,22.6-101.3,28.9-123.6
		c6.4-22.3-4-33.4-11.3-38.7s-22.7,0.5-25.8,3.8s-4.5,12.2-4.5,12.2s2.6-8,7.3-10.6s15.1-4.5,20.5-1.5c5.4,3.1,13.4,16.7,8.9,28.6
		C269,254,242,362,241.4,372.1c-0.8,12.1,6.1,33.5,16.4,42.7s28.1,8.4,30,9s2.2,3.4,2.2,3.4L290.4,408.8z"/>
	<g class="st7">
		<path d="M284.9,413.2c-0.6,3.5-0.7,7-0.3,10.5h-0.4c-0.2-1.7-0.3-3.4-0.3-5.1c0-1.8,0.3-3.6,0.6-5.4c0.1-0.4,0.2-0.7,0.2-1.1
			l0.4-0.1C285.1,412.3,285,412.7,284.9,413.2z"/>
		<path d="M271.9,412.8l-0.1,0.7c-0.3,1.8-0.5,3.6-0.6,5.3c0-0.9-0.1-1.8,0-2.7c0.1-0.9,0.1-1.8,0.2-2.7l0.1-0.7L271.9,412.8z"/>
		<path d="M273.9,422.3c0,0.2,0,0.4,0,0.6C273.9,422.7,273.9,422.5,273.9,422.3c-0.2-0.7-0.3-1.4-0.4-2.1c0-0.9-0.1-1.8-0.1-2.7
			c0-1.5,0.1-2.9,0.4-4.4h0.5c-0.3,1.4-0.4,2.9-0.5,4.3C273.8,419.1,273.8,420.7,273.9,422.3z"/>
		<path d="M277.8,420.3c0,0.9,0,1.8,0,2.7l-0.5-0.1c0-0.9,0-1.8,0-2.7c0.1-1.8,0.4-3.6,0.9-5.3C278,416.7,277.8,418.5,277.8,420.3z"
			/>
		<path d="M267.8,411.7c-0.2,0.8-0.3,1.7-0.5,2.5c-0.3,1.8-0.4,3.6-0.4,5.3c0,0.2,0,0.5,0,0.7l-0.3-0.1c0-0.2,0-0.4,0-0.6
			c-0.1-1.8,0-3.6,0.3-5.4c0.1-0.9,0.3-1.8,0.5-2.6L267.8,411.7z"/>
		<path d="M257.6,402c-0.1,0.3-0.2,0.5-0.4,0.8c-1.3,2.8-2.2,5.7-2.8,8.7l-0.1-0.2c0-0.3,0.1-0.7,0.1-1c0.2-0.9,0.3-1.8,0.5-2.6
			c0.4-1.8,1-3.5,1.8-5.1c0.2-0.4,0.4-0.7,0.5-1.1L257.6,402z"/>
		<path d="M259.1,404.4c-0.3,0.8-0.6,1.5-0.8,2.3c-0.5,1.7-0.9,3.4-1.2,5.2c-0.1,0.7-0.2,1.3-0.3,2c-0.1-0.1-0.2-0.2-0.3-0.3
			c0-0.6,0.1-1.2,0.2-1.8c0.2-1.8,0.6-3.6,1.2-5.3c0.3-0.9,0.6-1.8,1-2.7C258.9,404.1,259,404.3,259.1,404.4z"/>
		<path d="M261.7,410c-0.5,1.7-0.9,3.5-1.1,5.2c-0.1,0.6-0.2,1.2-0.2,1.8l-0.4-0.3c0.1-0.5,0.1-1,0.2-1.5
			C260.5,413.4,261,411.6,261.7,410z"/>
		<path d="M255.8,398.2c-0.6,0.9-1.2,1.8-1.8,2.7c-0.9,1.5-1.8,3.1-2.5,4.7c0.3-0.8,0.6-1.7,1-2.5s0.8-1.6,1.2-2.4
			c0.6-1,1.2-2,1.9-3C255.7,397.9,255.7,398.1,255.8,398.2z"/>
		<path d="M251.2,384c-0.4,0.3-0.7,0.7-1.1,1c-1.3,1.2-2.5,2.5-3.7,3.9c0.5-0.7,1-1.5,1.6-2.2s1.2-1.4,1.8-2
			c0.4-0.4,0.8-0.8,1.2-1.2C251.1,383.7,251.2,383.8,251.2,384z"/>
		<path d="M251.9,386.7c-0.9,0.8-1.7,1.8-2.5,2.7c-1.2,1.4-2.2,2.8-3.2,4.3c0.4-0.8,0.9-1.6,1.4-2.3c0.5-0.8,1-1.5,1.6-2.2
			c0.8-1.1,1.7-2.1,2.7-3C251.8,386.4,251.8,386.5,251.9,386.7z"/>
		<path d="M253.2,391.3L253.2,391.3c-0.9,0.9-1.7,1.8-2.4,2.7c-1.1,1.4-2.1,2.9-3,4.4c-0.2,0.3-0.3,0.6-0.5,0.8l-0.2-0.6
			c0.1-0.2,0.2-0.4,0.3-0.5c0.9-1.6,2-3,3.1-4.4c0.8-0.9,1.7-1.8,2.6-2.6L253.2,391.3z"/>
		<path d="M249.9,377c-1.7,0.1-3.5,0.3-5.2,0.6c-1.1,0.2-2.1,0.4-3.2,0.7c0-0.1,0-0.3,0-0.5c1-0.3,2.1-0.5,3.1-0.8
			c1.7-0.3,3.5-0.5,5.2-0.5C249.9,376.8,249.9,376.9,249.9,377z"/>
		<path d="M250.9,363.8c0,0.2-0.1,0.3-0.1,0.5c-1.3-0.1-2.5-0.1-3.8,0c-1.4,0-2.9,0.2-4.3,0.4v-0.1c0.5-0.1,1.1-0.2,1.6-0.3
			c0.9-0.1,1.8-0.3,2.7-0.3C248.3,363.8,249.6,363.8,250.9,363.8z"/>
		<path d="M250.5,366.2l-0.1,0.5c-0.5,0-1,0-1.5,0c-1.8,0-3.6,0.2-5.3,0.5c-0.5,0.1-0.9,0.1-1.4,0.2c0-0.1,0-0.2,0.1-0.3
			c0.4-0.1,0.8-0.2,1.3-0.3c1.8-0.4,3.6-0.6,5.4-0.6C249.4,366.2,250,366.2,250.5,366.2z"/>
		<path d="M247,371c-1.8,0.1-3.6,0.2-5.3,0.6h-0.2c0-0.1,0-0.3,0-0.4h0.1C243.4,370.9,245.2,370.8,247,371z"/>
		<path d="M251.8,359.8c0,0.1-0.1,0.2-0.1,0.3c-0.3,0-0.6-0.1-0.9-0.1c-1.8-0.1-3.6-0.1-5.4,0c-0.6,0-1.2,0.1-1.8,0.1
			c0-0.2,0.1-0.3,0.1-0.5c0.5-0.1,1.1-0.1,1.6-0.1c1.8-0.1,3.6-0.1,5.4,0.1L251.8,359.8z"/>
		<path d="M254.5,347.3c0,0.2-0.1,0.3-0.1,0.5c-1.7-0.4-3.4-0.6-5.1-0.8c-0.9-0.1-1.8-0.1-2.6-0.1l0.1-0.2c0.9,0,1.7-0.1,2.6,0
			C251,346.8,252.8,347,254.5,347.3z"/>
		<path d="M254,349.6c0,0.1-0.1,0.3-0.1,0.4c-1-0.2-2-0.3-3-0.4c-1.6-0.2-3.2-0.2-4.8-0.2c0-0.1,0.1-0.3,0.1-0.4
			c1.6-0.1,3.2,0,4.8,0.1C251.9,349.3,252.9,349.4,254,349.6z"/>
		<path d="M248.4,353.7c-1.1-0.1-2.2-0.1-3.3-0.1c0-0.1,0-0.2,0.1-0.3C246.3,353.4,247.4,353.5,248.4,353.7z"/>
		<path d="M257.5,334.1c0,0.1,0,0.2-0.1,0.4c-1.6-0.3-3.3-0.5-4.9-0.7c0.9,0,1.8,0,2.7,0.1C256.1,333.9,256.7,334,257.5,334.1z"/>
		<path d="M256.9,336.4c0,0.2-0.1,0.3-0.1,0.5c-1-0.2-2-0.3-3.1-0.4c-1.5-0.1-3.1-0.2-4.6-0.1v-0.1c0.6-0.1,1.3-0.1,1.9-0.2
			c0.9,0,1.8-0.1,2.7,0C254.8,336.2,255.9,336.3,256.9,336.4z"/>
		<path d="M256.2,341.1l-0.3-0.1c-1.6-0.3-3.3-0.6-5-0.6c-0.9,0-1.8-0.1-2.6-0.1c0-0.1,0.1-0.3,0.1-0.5c0.9,0,1.7,0,2.6,0.1
			c1.7,0.1,3.4,0.5,5,1L256.2,341.1z"/>
		<path d="M258.5,329.8c0,0.2-0.1,0.3-0.1,0.5c-0.4-0.1-0.8-0.2-1.1-0.2c-1.8-0.3-3.5-0.5-5.3-0.6c-0.4,0-0.8,0-1.1,0
			c0-0.1,0-0.2,0.1-0.3h1c1.8,0,3.6,0.2,5.4,0.5C257.7,329.7,258.1,329.7,258.5,329.8z"/>
		<path d="M262.3,313.5c0,0.1,0,0.2-0.1,0.3c-1.2-0.2-2.5-0.4-3.7-0.5c0.9,0,1.7,0,2.6,0.1L262.3,313.5z"/>
		<path d="M260.8,319.6c0,0.1-0.1,0.3-0.1,0.4l-0.9-0.2c-1.8-0.4-3.5-0.6-5.3-0.8c0.9,0,1.8,0,2.7,0.1s1.8,0.2,2.7,0.3L260.8,319.6z
			"/>
		<path d="M265.1,301.6c0,0.2-0.1,0.3-0.1,0.5c-1.3-0.4-2.7-0.8-4.1-1.1c-1-0.2-2-0.4-3-0.5l0.1-0.2h0.4c0.9,0.1,1.8,0.2,2.7,0.3
			C262.4,300.9,263.7,301.2,265.1,301.6z"/>
		<path d="M264,306.2c0,0.1-0.1,0.3-0.1,0.5c-0.7-0.2-1.4-0.4-2.1-0.5c-1.7-0.4-3.4-0.7-5.1-0.8l0.1-0.4c1.7,0.1,3.4,0.3,5.1,0.7
			C262.6,305.7,263.3,305.9,264,306.2z"/>
		<path d="M268.1,283.9c-1.7-0.6-3.4-1.1-5.2-1.4l-0.4-0.1c0-0.1,0.1-0.3,0.1-0.4l0.4,0.1C264.7,282.5,266.5,283.1,268.1,283.9z"/>
		<path d="M266.1,297.7l-0.1,0.4l-0.4-0.1c-1.7-0.6-3.4-1-5.2-1.3c-0.5-0.1-0.9-0.2-1.4-0.2l0.1-0.5l1.4,0.2
			c1.8,0.3,3.5,0.8,5.2,1.5H266.1z"/>
		<path d="M279.6,244.2v0.1c-1.3-0.6-2.6-1.1-3.9-1.6c-0.7-0.2-1.4-0.4-2.1-0.6c0.1-0.1,0.1-0.3,0.1-0.4c0.7,0.2,1.4,0.4,2,0.7
			C277.1,242.9,278.3,243.5,279.6,244.2z"/>
		<path d="M277.2,247.8c-1.6-0.6-3.3-1.1-5-1.5l0,0c0-0.1,0.1-0.2,0.1-0.4C274,246.4,275.6,247,277.2,247.8z"/>
		<path d="M277.7,222.1c-1.4,0.2-2.7,0.5-4,0.8c0.9-0.3,1.7-0.6,2.6-0.8l1.3-0.3C277.7,221.9,277.7,222,277.7,222.1z"/>
		<path d="M278.8,224.7c-0.6,0-1.2,0.1-1.7,0.2c-1.3,0.1-2.6,0.3-3.9,0.6v-0.1c0.4-0.1,0.8-0.2,1.2-0.4c0.9-0.2,1.8-0.4,2.7-0.5
			c0.5-0.1,1.1-0.2,1.6-0.2C278.7,224.4,278.8,224.6,278.8,224.7z"/>
		<path d="M280.5,237.1c0,0.1,0,0.2,0,0.3c-1.2-0.3-2.5-0.5-3.7-0.7c0.9,0.1,1.8,0.1,2.7,0.2L280.5,237.1z"/>
		<path d="M278.2,229.3c-1.3,0-2.6,0.1-3.9,0.3c0-0.1,0-0.2-0.1-0.3l0,0C275.6,229.1,276.9,229.1,278.2,229.3z"/>
		<path d="M274.3,216.4c-1,0.5-1.9,1-2.9,1.6c-0.5,0.3-1,0.6-1.5,1l-0.2-0.2c0.5-0.4,1-0.7,1.5-1.1c0.9-0.6,1.8-1.1,2.8-1.6
			L274.3,216.4z"/>
		<path d="M268.9,212.5c-0.9,0.7-1.8,1.4-2.6,2.2l-0.2-0.2C266.9,213.8,267.9,213.1,268.9,212.5z"/>
		<path d="M257.7,207.7c-0.6,1.1-1.1,2.2-1.5,3.3c-0.2,0.4-0.3,0.7-0.4,1.1h-0.5c0.2-0.4,0.4-0.9,0.6-1.3
			C256.4,209.7,256.9,208.7,257.7,207.7L257.7,207.7z"/>
		<path d="M253.8,209c-0.6,1.1-1,2.2-1.4,3.4l-0.4,0.1C252.5,211.3,253.1,210.1,253.8,209z"/>
		<path d="M250.2,209.1c-0.1,1-0.2,2-0.2,3.1c0-0.9-0.1-1.8-0.1-2.7c0-0.1,0-0.2,0-0.3L250.2,209.1z"/>
		<path d="M247.5,213.6l-0.4,0.1c-0.2-1.1-0.3-2.3-0.3-3.4l0.5-0.2C247.3,211.3,247.3,212.5,247.5,213.6z"/>
		<path d="M245,212.2c-0.1,0.8-0.1,1.7-0.1,2.5l-0.2,0.1C244.7,213.9,244.8,213,245,212.2z"/>
		<path d="M268.3,210.5c-1,0.7-2,1.5-3,2.3l-0.8,0.7c-0.1-0.1-0.3-0.2-0.4-0.2c0.3-0.3,0.6-0.5,0.9-0.8c1-0.8,2-1.5,3.1-2.1
			L268.3,210.5z"/>
		<path d="M272.6,214.5c-1,0.6-1.9,1.3-2.9,2c0.7-0.6,1.3-1.2,2-1.8l0.6-0.5L272.6,214.5z"/>
		<path d="M268.6,287.4l-0.1,0.5l-0.3-0.1c-1.7-0.6-3.4-1.1-5.2-1.5c-0.5-0.1-0.9-0.2-1.4-0.3c0-0.1,0-0.2,0.1-0.3
			c0.5,0,1,0.1,1.4,0.2c1.8,0.3,3.5,0.7,5.2,1.4L268.6,287.4z"/>
		<path d="M271.5,275.6c0,0.1,0,0.1,0,0.2l-2.2-0.6C269.9,275.3,270.7,275.5,271.5,275.6z"/>
		<path d="M270.3,280.1l-0.1,0.4l-1-0.3c-1.7-0.4-3.5-0.8-5.3-1c0.9,0.1,1.8,0.1,2.7,0.2c0.9,0.1,1.8,0.2,2.7,0.5
			C269.7,279.9,270,280,270.3,280.1z"/>
		<path d="M276.1,257.3l-0.1,0.4c-0.6-0.2-1.1-0.3-1.7-0.4c-1.6-0.4-3.3-0.7-5-0.8c0-0.1,0.1-0.3,0.1-0.4c1.7,0.1,3.4,0.4,5,0.7
			C275,257,275.6,257.1,276.1,257.3z"/>
		<path d="M272.6,271.2l-0.1,0.5c-1-0.3-2-0.6-3.1-0.8c-1.2-0.3-2.5-0.5-3.7-0.6v-0.1c0.4,0,0.7,0,1.1,0c0.9,0.1,1.8,0.2,2.7,0.4
			C270.5,270.6,271.5,270.9,272.6,271.2z"/>
		<path d="M275.1,261.3v0.1l-1.3-0.4L275.1,261.3z"/>
		<path d="M276.2,251.3c-1.6-0.6-3.3-1-5.1-1.3c0-0.1,0.1-0.2,0.1-0.4C273,250,274.6,250.5,276.2,251.3z"/>
		<path d="M259.8,323.9c0,0.1,0,0.1,0,0.2c-1.1-0.3-2.2-0.6-3.3-0.7c-1.4-0.2-2.7-0.4-4.1-0.5c0-0.1,0.1-0.3,0.1-0.5
			c1.4,0.1,2.7,0.3,4.1,0.6C257.7,323.2,258.8,323.5,259.8,323.9z"/>
	</g>
	<path class="st1" d="M325.1,451.7c2.9-0.4,5.8-0.4,8.7-0.1c3.3,0.3,6.5,1.2,9.4,2.6c0.9,0.4,1.6-0.9,0.8-1.3
		c-6-2.8-12.8-3.7-19.3-2.6C323.7,450.4,324.1,451.9,325.1,451.7z"/>
	<path class="st1" d="M322.2,452c3.2,0.3,6.2,1.4,8.9,3.1c2.8,1.7,5.3,3.9,7.3,6.5c0.6,0.8,1.9,0,1.3-0.8c-2.1-2.8-4.8-5.2-7.9-7
		c-2.9-1.9-6.2-3-9.6-3.3C321.2,450.5,321.2,452,322.2,452L322.2,452z"/>
	<path class="st1" d="M388.5,435.7c2.9-0.4,5.8-0.4,8.7-0.1c3.3,0.3,6.5,1.2,9.4,2.6c0.9,0.4,1.6-0.9,0.8-1.3
		c-6-2.8-12.8-3.7-19.3-2.6C387.1,434.5,387.5,435.9,388.5,435.7L388.5,435.7z"/>
	<path class="st1" d="M385.6,436c3.2,0.3,6.2,1.4,8.9,3.1c2.8,1.7,5.3,3.9,7.3,6.5c0.5,0.8,1.9,0,1.3-0.8c-2.1-2.8-4.8-5.2-7.9-7
		c-2.9-1.8-6.2-3-9.6-3.3C384.6,434.5,384.6,436,385.6,436L385.6,436z"/>
	<path class="st4" d="M347.8,250.6c0,0-23.4-0.4-40.2-14.2c-13.9-11.4-19-17-22.1-14.2s1.4,48.7,38,59c12.5,3.5,24.2-19,24.2-19
		L347.8,250.6z"/>
	<path class="st6" d="M347.8,250.6c0,0-23.4-0.4-40.2-14.2c-13.9-11.4-19-17-22.1-14.2s1.4,48.7,38,59c12.5,3.5,24.2-19,24.2-19
		L347.8,250.6z"/>
	<path class="st8" d="M347.8,250.6v11.6c0,0-11.8,22.5-24.2,19c-9.1-2.5-17.2-7.7-23.3-14.8c8.7-5.7,21.9-14.3,29.3-18.9
		C335.5,249.3,341.6,250.3,347.8,250.6z"/>
	<path class="st9" d="M321.4,329.9c0,0-14.3-26.8-13.3-39.9s14.9-35.2,26.5-40.8s65.7,2.4,83.5,20.8c3.9,4,0.2,11-1.8,14.7
		c-2.6,4.7-11.6,15.2-19.4,18.2c0,0,1.4,15.4-15,23.8c0,0,5.6,26.2,10.6,40.5s17.4,38,9.8,55.2c-7.5,17.2-26.5,15.9-39,17.7
		c-12.5,1.8-33.4,13.9-51.9,11.3s-25.8-23.2-20.6-45.5C296.7,381.2,306.3,351.3,321.4,329.9z"/>
	<path class="st9" d="M325.2,272.9c0,0-7-0.7-20.5-6.1s-35.9-19.8-57.7-8.3c-25.1,13.3-33.5,73.7,14.4,92.4
		c41.3,16.1,70.8-45,70.8-45L325.2,272.9z"/>
	<path class="st5" d="M332.2,305.9c0,0-29.4,61.1-70.8,45c-10.8-4.2-18.7-10.5-24.3-18c-5-8.6-8.1-18.2-8.9-28.2
		c-0.8-11.9,1-29,16.4-38.5s35.1-0.5,50.5,7.8c15.4,8.3,29.2,9,32.6,10.7l0,0C335.3,292.2,332.2,305.9,332.2,305.9z"/>
	<path class="st1" d="M295.1,262.5l7.4,2.9c2.5,1,5,1.9,7.5,2.8s5,1.8,7.5,2.6c1.3,0.4,2.5,0.8,3.8,1.1c0.6,0.2,1.3,0.3,1.9,0.5
		s1.3,0.3,2,0.4c-2.7-0.1-5.3-0.6-7.9-1.3c-2.6-0.7-5.2-1.5-7.7-2.4s-5-2-7.4-3.1S297.4,263.8,295.1,262.5z"/>
	<path class="st1" d="M318.1,327.8l1.8-2.7l1.8-2.7l3.6-5.4c1.2-1.8,2.4-3.6,3.5-5.5c0.6-0.9,1.2-1.8,1.7-2.8s1.1-1.9,1.7-2.8
		c-0.7,2.1-1.6,4.1-2.7,6c-1,1.9-2.2,3.8-3.4,5.6s-2.5,3.6-3.8,5.3C321,324.5,319.6,326.2,318.1,327.8z"/>
	<path class="st1" d="M319.1,271.7c0.4-0.2,0.8-0.4,1.2-0.5c1.2-0.4,2.6-0.3,3.8,0.1c-0.4,0-0.8,0-1.2,0.1l-1.2,0.1
		C320.8,271.5,320,271.6,319.1,271.7z"/>
	<path class="st1" d="M329.1,311.7c0.6-0.7,1.2-1.3,1.8-1.9c0.6-0.6,1.2-1.1,1.9-1.8c-0.2,0.9-0.7,1.7-1.4,2.4
		C330.8,311,330,311.4,329.1,311.7z"/>
	<path class="st1" d="M329.1,294.1l-7.2-0.3c-2.4-0.1-4.8-0.2-7.2-0.2c-4.8-0.1-9.6-0.1-14.4,0.2c-4.8,0.4-9.3,2-13.7,3.9
		c-2.2,0.9-4.4,2-6.5,3.1s-4.2,2.3-6.3,3.5c3.9-2.8,8.1-5.3,12.5-7.4c4.4-2.2,9.1-3.6,13.9-4.2c4.8-0.3,9.7-0.3,14.5,0
		C319.5,293.2,324.3,293.5,329.1,294.1z"/>
	<path class="st1" d="M325.2,295.9c-2.9,0.6-5.9,1.1-8.8,1.8s-5.8,1.4-8.6,2.3c-1.4,0.4-2.8,1-4.1,1.6c-1.3,0.6-2.6,1.4-3.8,2.2
		c-1.2,0.8-2.4,1.8-3.5,2.8s-2.1,2.1-3,3.3c1.6-2.6,3.6-4.8,6-6.7c1.2-0.9,2.5-1.7,3.9-2.4c1.4-0.7,2.8-1.2,4.2-1.7
		c2.9-0.9,5.8-1.6,8.8-2.1C319.2,296.4,322.2,296.1,325.2,295.9z"/>
	<path class="st1" d="M405.3,309.3c-0.2-4.4,1-8.7,3.6-12.3c0.6-0.8-0.7-1.5-1.3-0.8c-1.4,1.9-2.4,4.1-3,6.4
		c-0.6,2.2-0.8,4.4-0.8,6.6C403.8,310.3,405.3,310.3,405.3,309.3L405.3,309.3z"/>
	<path class="st1" d="M406.5,310.3c0.5-2.1,1.5-4,3-5.6c1.7-1.9,3.7-3.5,6-4.6c0.9-0.4,0.1-1.7-0.8-1.3c-0.7,0.3-1.4,0.7-2.1,1.2
		c-1.6,1.1-3.1,2.3-4.3,3.8c-1.6,1.7-2.7,3.8-3.3,6.1C404.9,310.9,406.3,311.3,406.5,310.3L406.5,310.3z"/>
	<path class="st1" d="M407.1,311.6c0.9-1.6,2.2-2.9,3.7-3.9c1.9-1.4,4.2-2.2,6.6-2.3c0.4,0,0.8-0.3,0.8-0.8s-0.3-0.8-0.8-0.8
		c-2.6,0.1-5.2,1-7.4,2.5c-1.8,1.1-3.2,2.6-4.3,4.5C405.3,311.7,406.6,312.5,407.1,311.6L407.1,311.6z"/>
	<path class="st9" d="M361,334.2c0,0,25.5,4.2,42.5-25.4c0,0,3.7-2.1,4.6,1.9c0,0,1.9,29.3-15.4,42.5c-17.6,13.4-38.1,9.2-38.1,9.2
		S341.6,344.6,361,334.2z"/>
	<path class="st1" d="M382.6,329.9c-2.3,1.8-4.8,3-7.6,3.7c-1.4,0.4-2.8,0.6-4.2,0.8c-1.4,0.1-2.8,0.1-4.2,0l4.1-0.8
		c1.4-0.3,2.7-0.6,4-1s2.7-0.8,4-1.2S381.3,330.4,382.6,329.9z"/>
	<path class="st1" d="M354.6,362.4c1.7,0.2,3.3,0.3,5,0.4c1.7,0,3.3,0,5-0.1c3.3-0.2,6.6-0.7,9.9-1.5c3.2-0.8,6.4-1.8,9.4-3.2
		c3.1-1.4,6-3,8.8-4.9c-0.7,0.5-1.3,1-2,1.5c-0.6,0.5-1.3,1-2,1.5l-2.2,1.3c-0.7,0.5-1.5,0.8-2.2,1.2c-1.5,0.8-3.1,1.4-4.7,2
		c-0.8,0.3-1.6,0.5-2.4,0.8l-1.2,0.4l-1.2,0.3c-3.3,0.8-6.7,1.2-10.1,1.3C361.3,363.5,357.9,363.1,354.6,362.4z"/>
	<path class="st1" d="M357.1,363.9c0.5,0,1-0.1,1.4-0.1c0.5-0.1,1-0.1,1.4-0.2c0.9-0.1,1.8-0.3,2.8-0.5c-0.7,0.7-1.7,1.1-2.7,1.3
		c-0.5,0.1-1,0.1-1.5,0C358,364.3,357.5,364.2,357.1,363.9z"/>
	<path class="st1" d="M376.4,286c-0.2-0.1-0.1,0.5,0,0.6c3.9,3.5,7.6,8.1,5.1,12.5c0,0.1,0,0.2,0,0.2c0.1,0,0.2,0,0.2,0l0,0
		C385.7,294.7,380.7,288.7,376.4,286z"/>
	<path class="st1" d="M369.6,286.2c-7,5.8,3.5,17.3,10,11.9C386,292.7,375.4,281.3,369.6,286.2z"/>
	<path class="st1" d="M354.5,292.1c-0.9-1.3-1.5-2.7-1.8-4.2c-0.3-1.6-0.4-3.1-0.1-4.7s0.9-3.1,1.9-4.4s2.2-2.2,3.7-2.8
		c-0.9,1.1-1.7,2.4-2.4,3.7c-0.6,1.2-1,2.5-1.3,3.9c-0.2,1.4-0.4,2.8-0.3,4.2C354.2,289.2,354.3,290.6,354.5,292.1z"/>
	<path class="st1" d="M353.7,292.2c-1.1-1.1-2-2.3-2.6-3.8c-0.6-1.4-1-3-1-4.6c-0.1-1.6,0.3-3.2,1-4.7c0.7-1.4,1.7-2.6,3-3.5
		c-0.6,1.3-1.2,2.6-1.6,4c-0.3,1.3-0.5,2.7-0.4,4.1c0,1.4,0.2,2.8,0.5,4.1C352.9,289.4,353.3,290.8,353.7,292.2z"/>
	<path class="st10" d="M393.5,433.1c-9,5.9-21.1,5.6-30,6.9s-21.8,7.7-35.2,10.4c-0.2-10.8,0.8-34,11-56
		c13.2-28.5,32-37.3,38.1-14.5C382.1,397.4,382.6,413.2,393.5,433.1z"/>
	<path class="st1" d="M382,326.6c-2.8,1.2-5.8,2.1-8.8,2.4c-3,0.4-6.1,0.4-9.2-0.1c-1.5-0.2-3-0.6-4.5-1c-1.5-0.5-2.9-1.1-4.2-1.8
		c-0.7-0.3-1.4-0.7-2-1.1l-1.9-1.3c-0.6-0.4-1.2-0.9-1.8-1.4c-0.6-0.5-1.1-1-1.7-1.5c2.4,1.8,5,3.3,7.8,4.6c1.4,0.6,2.8,1.1,4.2,1.6
		c1.4,0.4,2.9,0.7,4.4,0.9c3,0.5,6,0.6,8.9,0.4l2.2-0.2c0.7-0.1,1.5-0.2,2.2-0.4C379.1,327.4,380.6,327.1,382,326.6z"/>
	<path class="st1" d="M419.8,276c0,0-9.9,0.6-9.9-2.4c0-1.4,7.6-6,10.3-6C422.9,267.7,419.8,276,419.8,276z"/>
	<circle class="st10" cx="373.6" cy="307.8" r="7.2"/>
</g>
<g id="freepik--Crumbs--inject-2">
	<path class="st4" d="M587.5,427.8c0-1.4,2.6-3.2,3.3-3.6s4-0.7,4.2-1.2c0.2-0.6,3.4-1.2,4.5-1.2c1.2,0.1,2.7,2.1,2.9,3.7
		s-0.8,3.1-2.3,3.6c-1.4,0.3-4.1,1.6-5.2,1.7C594,430.9,587.5,429.3,587.5,427.8z"/>
	<path class="st11" d="M587.5,427.8c0-1.4,2.6-3.2,3.3-3.6s4-0.7,4.2-1.2c0.2-0.6,3.4-1.2,4.5-1.2c1.2,0.1,2.7,2.1,2.9,3.7
		s-0.8,3.1-2.3,3.6c-1.4,0.3-4.1,1.6-5.2,1.7C594,430.9,587.5,429.3,587.5,427.8z"/>
	<path class="st4" d="M576.3,423c-0.7-1,0.9-1.8,1.7-2.9s3.5-0.7,4-0.3c0.7,0.9,1,2.1,0.9,3.3c-0.8,1.1-1.9,1.8-3.2,2.1
		C578.8,425,576.8,423.6,576.3,423z"/>
	<path class="st11" d="M576.3,423c-0.7-1,0.9-1.8,1.7-2.9s3.5-0.7,4-0.3c0.7,0.9,1,2.1,0.9,3.3c-0.8,1.1-1.9,1.8-3.2,2.1
		C578.8,425,576.8,423.6,576.3,423z"/>
	<path class="st4" d="M589.1,421c0.2-1.6,3.3-1.1,3.8-0.3s-1.3,2.5-2.1,1.8S589,421.6,589.1,421z"/>
	<path class="st12" d="M589.1,421c0.2-1.6,3.3-1.1,3.8-0.3s-1.3,2.5-2.1,1.8S589,421.6,589.1,421z"/>
	<path class="st4" d="M578,430.3c0.5-0.6,2-0.8,2.2-0.4s0.7,1.1,0.4,1.4c-0.4,0.3-1.4,0.9-1.8,0.6S577.7,430.7,578,430.3z"/>
	<path class="st12" d="M578,430.3c0.5-0.6,2-0.8,2.2-0.4s0.7,1.1,0.4,1.4c-0.4,0.3-1.4,0.9-1.8,0.6S577.7,430.7,578,430.3z"/>
	<path class="st4" d="M567.8,425.5c0.3-1,1.7-1.7,2.6-1.8s2.6,0.6,2.5,1.3c-0.1,0.6-1.4,1.2-1.6,1.7c-0.2,0.5-0.9,1.5-1.6,1.2
		S567.5,426.6,567.8,425.5z"/>
	<path class="st11" d="M567.8,425.5c0.3-1,1.7-1.7,2.6-1.8s2.6,0.6,2.5,1.3c-0.1,0.6-1.4,1.2-1.6,1.7c-0.2,0.5-0.9,1.5-1.6,1.2
		S567.5,426.6,567.8,425.5z"/>
</g>
<g class="st13">
	<path d="M257.4,97.1v90.5H238l-37.9-61.1c0,1.5,0.1,2.6,0.1,3c0.2,1.5,0.3,2.9,0.3,3.9v54.2h-17.7V97.1h24.5l33,53.4
		c-0.3-2.7-0.4-4.7-0.4-6V97.1H257.4z"/>
	<path d="M320,188.9c-13,0-23.1-4.6-30.3-13.7C282.6,166.1,279,155,279,142c0-13.2,3.6-24.2,10.9-33.1c7.2-8.8,17.5-13.3,30.9-13.3
		c13.5,0,23.7,4.7,30.6,14.2c6.9,9.4,10.3,20.2,10.3,32.4c0,13.1-3.5,24.2-10.6,33.2C344,184.4,333.6,188.9,320,188.9z M320.7,113
		c-11.9,0-17.9,9.8-17.9,29.3c0,19.6,6,29.4,17.9,29.4c11.5,0,17.3-9.8,17.3-29.3C337.9,122.8,332.2,113,320.7,113z"/>
	<path d="M444.2,97.1V115h-24v72.6h-23V115h-24.1V97.1H444.2z"/>
	<path d="M572.9,115h-45.4v20.3h35.8v16.9h-35.8v35.4H504V97.1h68.9V115z"/>
	<path d="M797.3,97.1v56.3c0,9.1-1.1,15.9-3.3,20.3c-2.2,4.4-6.3,8.1-12.3,10.9c-6,2.9-13.6,4.3-23,4.3c-9.3,0-16.7-1.3-22.3-3.8
		c-5.5-2.6-9.6-6.2-12.4-10.9c-2.7-4.7-4.1-11.6-4.1-20.7V97.1h24.6v56.3c0,4.9,0.4,8.4,1.3,10.7c0.9,2.3,2.6,4.1,5.3,5.5
		c2.6,1.3,5.9,2,9.7,2c4.3,0,7.7-0.7,10.4-2c2.7-1.3,4.4-3.1,5.3-5.3c0.9-2.2,1.3-5.8,1.3-11V97.1H797.3z"/>
	<path d="M896.7,97.1v90.5h-19.4l-37.9-61.1c0,1.5,0.1,2.6,0.1,3c0.2,1.5,0.3,2.9,0.3,3.9v54.2h-17.7V97.1h24.5l33,53.4
		c-0.3-2.7-0.4-4.7-0.4-6V97.1H896.7z"/>
	<path d="M922.9,97.1h29.6c12.1,0,21,1.6,26.9,4.7s11.2,8,15.9,14.8c4.7,6.7,7,15.3,7,25.6c0,12.9-4.1,23.8-12.3,32.4
		c-8.2,8.7-19.5,13-33.8,13h-33.3V97.1z M945.2,113.7v56.8h9.3c8.3,0,14.4-2.9,18.4-8.7c4-5.8,6-12.5,6-20.3
		c0-5.5-1.1-10.6-3.4-15.2c-2.3-4.7-5.1-7.9-8.5-9.8c-3.4-1.9-7.5-2.8-12.3-2.8H945.2z"/>
</g>
<g>
	<path class="st4" d="M616.7,97.1c7.4-4,14-2.6,18.5-2.7s13.6-6.3,18.8-5.3s30.9,13.3,34.9,18.8c4.1,5.5,10.8,19.6,11.4,22.4
		c0.6,2.8-1,18.9-0.3,22.5c0.8,3.7-1.7,9.6-3.3,12.2c-1.6,2.6-5.3,12.2-6.3,13.9c-0.9,1.8-25,20.7-33.4,21.9s-11.7-1.2-12.6-1.7
		c-0.9-0.5,1.9-6.5-2.5-7.9s-6-2.1-6-2.1s-1.2-3.7-3.5-4.5c-2.3-0.9-5.5,1.6-5.5,1.6s-1,0.5-2.9-0.3c-1.9-0.9-4.6,0.3-4.6,0.3
		c-0.7-1.2-1.7-2.1-3-2.5c-2.2-0.8-4.8,3.9-4.8,3.9s-14.6-12.2-15.4-15.2c-0.8-3-0.8-7-1.9-10.7c-1.1-3.7-3.4-5.4-3.4-11.6
		s1.3-19.3,2.9-22.4c1.6-3.1,3.1-7.5,4.1-8.9C599,117.4,609.1,101.3,616.7,97.1z"/>
	<g>
		<path class="st5" d="M621.5,97.1c7.4-4,14-2.6,18.5-2.7s13.6-6.3,18.8-5.3c5.2,0.9,30.9,13.3,34.9,18.8
			c4.1,5.5,10.8,19.6,11.4,22.4c0.6,2.8-1,18.9-0.3,22.5c0.8,3.7-1.7,9.6-3.3,12.2c-1.6,2.6-5.3,12.2-6.3,13.9s-25,20.7-33.4,21.9
			s-11.7-1.2-12.6-1.7c-0.9-0.5,1.9-6.5-2.5-7.9s-6-2.1-6-2.1s-1.2-3.7-3.5-4.5c-2.3-0.9-5.5,1.6-5.5,1.6s-1,0.5-2.9-0.3
			c-1.9-0.9-4.6,0.3-4.6,0.3c-0.7-1.2-1.7-2.1-3-2.5c-2.2-0.8-4.8,3.9-4.8,3.9s-14.6-12.2-15.4-15.2c-0.8-3-0.8-7-1.9-10.7
			s-3.4-5.4-3.4-11.6s1.3-19.3,2.9-22.4c1.6-3.1,3.1-7.5,4.1-8.9C603.8,117.4,613.9,101.3,621.5,97.1z"/>
	</g>
	<path class="st4" d="M666.3,177.3c1.2-1.5,4.3-1.7,4.7-0.1c0.4,1.6-0.5,3.4-2.6,3.4C666.3,180.5,665.9,177.9,666.3,177.3z"/>
	<path class="st8" d="M668.2,180.6c-1.9-0.2-2.3-2.7-1.9-3.2c0.8-0.8,1.8-1.3,2.9-1.2c-0.5,0.2-1.9,0.9-2.1,1.7
		C667,178.6,667,180,668.2,180.6z"/>
	<path class="st4" d="M599.8,145.2c2.1-4.1,9-1.9,9.6,1.8s-3.1,6.3-5.7,6.1C601,153,597.5,149.7,599.8,145.2z"/>
	<path class="st11" d="M675.9,150.4c-3.3-1-11.5,1.1-13.2,8.2c-1,4.1,4.2,12.5,9.6,13c5.3,0.5,9.3-5.1,10.5-9.6
		C683.9,157.4,681,152,675.9,150.4z"/>
	<path class="st8" d="M673.6,171.6c-0.4,0-0.9,0-1.3,0c-5.3-0.5-10.5-8.9-9.6-13c1.7-7.1,9.9-9.2,13.2-8.2c0.6,0.2,1.2,0.5,1.8,0.8
		c-4.3,0.8-10.1,5.1-10.6,8.1C666.6,162.6,668.8,170.8,673.6,171.6z"/>
	<path class="st11" d="M650.5,96.9c-0.3,2.7-3.2,4.6-5.5,6.4s-7.1,1.1-10.4-0.5c-3.3-1.6-5.3-8.1-5.2-8.6l0,0c2.2,0,4.2,0.2,5.8,0.2
		c3.1,0,8.4-3,13.1-4.5C649.2,91.7,650.7,95,650.5,96.9z"/>
	<path class="st8" d="M643.1,104.2c-2.5,0.6-6-0.1-8.6-1.4c-3.3-1.6-5.3-8.1-5.2-8.6l0,0c1.7,0,3.3,0.1,4.8,0.2
		c0.4,1.7,1.5,5.8,2.8,7C638.5,102.8,641.5,104.1,643.1,104.2z"/>
	<path class="st11" d="M677.3,120c2.2-1.6,6.2,0,6.5,3.1s-3.8,4.9-6.5,2.8c-1.6-1.2-2-3.4-0.8-5.1C676.7,120.5,677,120.2,677.3,120z
		"/>
	<path class="st8" d="M678,122.1c-0.5,1.7-0.3,2.9,1.4,4.6c-0.8-0.1-1.5-0.4-2.1-0.9c-1.6-1.2-2-3.4-0.8-5.1
		c0.2-0.3,0.5-0.6,0.8-0.8c1.2-0.7,2.7-0.8,4-0.2C681.1,119.7,678.5,120.4,678,122.1z"/>
	<path class="st11" d="M643.8,192.4c-0.5-0.5-1.1-0.9-1.8-1.2c-4.4-1.4-6-2.1-6-2.1s-1.2-3.7-3.5-4.5c-2.3-0.9-5.5,1.6-5.5,1.6
		c0.5-4.5,2.5-6.3,5.7-8s9-0.9,10.7,3.5C644.6,184.7,644.2,189.7,643.8,192.4z"/>
	<path class="st8" d="M638.9,177.7c-2.7,0.1-5.2,1.4-6.9,3.5c-0.6,1-0.9,2.1-1,3.2c-1.5,0.3-2.9,0.9-4.1,1.8c0.5-4.5,2.5-6.3,5.7-8
		C634.6,177.3,636.9,177.1,638.9,177.7z"/>
	<path class="st11" d="M620.6,116.8c-5.7,3.2-9.6,12-9.4,14.9s2.2,7.6,4.7,9.9c5.7,5,17,2.7,19.7,0s5.8-11.1,4.8-15.2
		C638.8,119.4,626.5,113.5,620.6,116.8z"/>
	<path class="st8" d="M628.5,144.3c-4.3,0.6-9.4,0.2-12.7-2.7c-2.5-2.2-4.5-6.9-4.7-9.9c-0.2-2.9,3.7-11.8,9.4-14.9
		c1.8-1,4.2-1.1,6.7-0.6c-3,2.2-7.9,6.2-8.9,9.7c-1.6,5.1-0.6,10.5,1.6,13.6C621.4,141.5,625.7,143.3,628.5,144.3z"/>
	<path class="st11" d="M608.1,153.8c-1.1,0.7-2.4,1.1-3.7,1.1c-3.1-0.2-7.2-4-4.5-9.2c1-1.9,3.1-2.9,5.1-2.6c2.8,0.2,5.6,2.1,6,4.6
		C611.4,150.1,610.3,152.5,608.1,153.8z"/>
	<path class="st8" d="M608.1,153.8c-1.1,0.7-2.4,1.1-3.7,1.1c-3.1-0.2-7.2-4-4.5-9.2c1-1.9,3.1-2.9,5.1-2.6
		c-1.2,0.9-3.1,2.8-3.1,5.4c0,3.8,2.4,4.8,3.8,5.3C606.6,153.9,607.4,153.9,608.1,153.8z"/>
	<path class="st4" d="M672.4,129.9c-0.7,0.5-1.6,0.3-2-0.3c-0.3-0.5-0.4-1.2,0-1.7c0.2-0.5,0.8-0.7,1.3-0.6c0.7,0,1.3,0.5,1.5,1.1
		C673.2,129,672.9,129.6,672.4,129.9z"/>
	<path class="st8" d="M672.4,129.9c-0.7,0.5-1.6,0.3-2-0.3c-0.3-0.5-0.4-1.2,0-1.7c0.2-0.5,0.8-0.7,1.3-0.6
		c-0.5,0.3-0.7,0.8-0.8,1.3c-0.1,0.6,0.3,1.2,0.9,1.3C672,130,672.2,130,672.4,129.9z"/>
	<path class="st4" d="M608.4,161.2c2-0.9,5.3,0.3,4.8,2.1c-0.4,1.8-2.1,3.3-4.3,2.2C606.8,164.5,607.6,161.6,608.4,161.2z"/>
	<path class="st11" d="M612.4,164.9c-0.9,1-2.3,1.2-3.4,0.6c-2.1-1.1-1.4-4-0.6-4.4c0.6-0.3,1.3-0.4,1.9-0.3c-0.6,0.5-0.9,1.2-1,2
		C609.3,164.1,610.9,165.3,612.4,164.9z"/>
</g>
</svg>
