<?xml version="1.0" encoding="utf-8"?>
<!-- Generator: Adobe Illustrator 25.2.0, SVG Export Plug-In . SVG Version: 6.00 Build 0)  -->
<svg version="1.1" id="Layer_1" xmlns="http://www.w3.org/2000/svg" xmlns:xlink="http://www.w3.org/1999/xlink" x="0px" y="0px"
	 viewBox="0 0 392.8 500" style="enable-background:new 0 0 392.8 500;" xml:space="preserve">
<style type="text/css">
	.st0{opacity:0.63;fill:#A7C999;stroke:#000000;stroke-miterlimit:10;}
	.st1{fill:#EBEBEB;}
	.st2{fill:#263238;}
	.st3{opacity:0.14;}
	.st4{fill:#231F20;}
	.st5{fill:#C7C7C7;}
	.st6{fill:#A6A6A6;}
	.st7{fill:#FFC727;}
	.st8{fill:#C35531;}
	.st9{opacity:0.2;}
	.st10{opacity:0.1;enable-background:new    ;}
	.st11{fill:#F2693E;}
	.st12{fill:#F68D42;}
	.st13{opacity:0.28;fill:#FFFFFF;enable-background:new    ;}
	.st14{fill:#FBAD18;}
	.st15{opacity:0.3;fill:#FFFFFF;enable-background:new    ;}
	.st16{fill:#FBAD18;stroke:#F68D42;stroke-width:3;stroke-miterlimit:10;}
</style>
<rect class="st0" width="392.8" height="500"/>
<g id="freepik--background-complete--inject-2">
	<path class="st1" d="M78.2,321.7L63.4,322l-7.5,0.1c-2.5,0-5,0-7.5,0H48v-0.5V309v-0.4h0.5l15,0.1c5,0,10,0.1,15,0.2h0.3v0.3
		c0,2.1-0.1,4.3-0.1,6.4L78.2,321.7z M78.2,321.7l-0.1-6.4c0-2.1-0.1-4.2-0.1-6.3l0.3,0.3c-5,0.1-10,0.2-15,0.2H48.4l0.5-0.5v12.6
		l-0.5-0.4c2.5,0,4.9,0,7.4,0l7.4,0.1L78.2,321.7z"/>
	<path class="st1" d="M61.6,337.7L46.8,338l-7.5,0.1c-2.5,0-5,0-7.6,0h-0.4v-0.5L31.2,325v-0.5h0.5l14.9,0.1c5,0,10,0.1,14.9,0.2
		h0.3v0.3c0,2.1-0.1,4.3-0.1,6.4L61.6,337.7z M61.6,337.7l-0.1-6.4c0-2.1-0.1-4.2-0.1-6.3l0.3,0.3c-5,0.1-10,0.2-15,0.2l-15,0.1
		l0.5-0.5v12.6l-0.5-0.4c2.5,0,4.9,0,7.4,0l7.4,0.1L61.6,337.7z"/>
	<path class="st1" d="M61,64.3l-14.9,0.3l-7.5,0.1c-2.5,0-5,0-7.5,0.1h-0.4v-0.5l-0.1-12.6v-0.5h0.5H46c5,0,10,0.1,14.9,0.2h0.3v0.3
		c0,2.1-0.1,4.3-0.1,6.4L61,64.3z M61,64.3l-0.1-6.4c0-2.1-0.1-4.2-0.1-6.3l0.3,0.3c-5,0-10,0.2-15,0.2l-15,0.1l0.5-0.5v12.6
		L31.1,64c2.5,0,4.9,0,7.4,0l7.4,0.1L61,64.3z"/>
	<path class="st1" d="M324.4,63.4l-14.8,0.3l-7.5,0.1c-2.5,0-5,0-7.5,0.1h-0.4v-0.5V50.8v-0.5h0.5l15,0.1c5,0,10,0.1,15,0.2h0.3v0.3
		c0,2.1-0.1,4.3-0.1,6.4L324.4,63.4z M324.4,63.4l-0.1-6.4c0-2.1-0.1-4.2-0.1-6.3l0.3,0.3c-5,0-10,0.2-15,0.2l-15,0.1l0.5-0.5v12.6
		l-0.5-0.4c2.5,0,4.9,0,7.4,0l7.4,0.1L324.4,63.4z"/>
	<path class="st1" d="M307.9,79.4l-14.8,0.3l-7.5,0.1c-2.5,0-5,0-7.5,0.1h-0.4v-0.4l-0.2-12.7v-0.5h0.5l15,0.1c5,0,10,0.1,15,0.2
		h0.3v0.2c0,2.1-0.1,4.3-0.1,6.4L307.9,79.4z M307.9,79.4l-0.1-6.4c0-2.1-0.1-4.2-0.1-6.3L308,67c-5,0-10,0.2-15,0.2l-15,0.1
		l0.5-0.5v12.6L278,79c2.5,0,4.9,0,7.4,0l7.4,0.1L307.9,79.4z"/>
	<path class="st1" d="M346.1,227.4l-14.8,0.3l-7.5,0.1c-2.5,0-5,0-7.5,0h-0.5v-0.4v-12.6v-0.5h0.5l14.9,0.1c5,0,10,0.1,15,0.2h0.3
		v0.3c0,2.1-0.1,4.3-0.1,6.4L346.1,227.4z M346.1,227.4L346,221c0-2.1-0.1-4.2-0.1-6.3l0.3,0.3c-5,0-10,0.2-15,0.2l-14.9,0.1
		l0.5-0.5v12.6l-0.6-0.4c2.5,0,4.9,0,7.4,0.1l7.4,0.1L346.1,227.4z"/>
	<path class="st1" d="M329.4,243.4l-14.8,0.3l-7.5,0.1c-2.5,0.1-5,0-7.5,0.1h-0.5v-0.4v-12.6v-0.5h0.5l15,0.1c5,0,10,0.1,14.9,0.2
		h0.3v0.3c0,2.1-0.1,4.3-0.1,6.4L329.4,243.4z M329.4,243.4l-0.1-6.4c0-2.1-0.1-4.2-0.1-6.3l0.3,0.3c-5,0.1-10,0.2-14.9,0.2l-15,0.1
		l0.5-0.5l-0.1,12.6l-0.4-0.4c2.5,0,4.9,0,7.4,0.1l7.4,0.1L329.4,243.4z"/>
	<path class="st1" d="M312.8,227.4l-14.8,0.3l-7.5,0.1c-2.5,0-5,0-7.5,0h-0.5v-0.4l-0.1-12.6v-0.5h0.5l14.9,0.1c5,0,10,0.1,15,0.2
		h0.3v0.3c0,2.1-0.1,4.3-0.1,6.4L312.8,227.4z M312.8,227.4l-0.1-6.4c0-2.1-0.1-4.2-0.1-6.3l0.3,0.3c-5,0-10,0.2-15,0.2l-14.9,0.1
		l0.5-0.5v12.6l-0.4-0.4c2.5,0,4.9,0,7.4,0.1l7.4,0.1L312.8,227.4z"/>
	<path class="st1" d="M312.8,166.3l-14.8,0.3l-7.5,0.1c-2.5,0-5,0-7.5,0h-0.4v-0.5v-12.6v-0.5h0.5l14.9,0.1c5,0,10,0.1,15,0.2h0.3
		v0.3c0,2.1-0.1,4.3-0.1,6.4L312.8,166.3z M312.8,166.3l-0.1-6.4c0-2.1-0.1-4.2-0.1-6.3l0.3,0.3c-5,0.1-10,0.2-15,0.2l-15,0.1
		l0.5-0.5v12.6l-0.5-0.4c2.5,0,4.9,0,7.4,0l7.4,0.1L312.8,166.3z"/>
	<path class="st1" d="M185,101.6l-14.8,0.3l-7.5,0.1c-2.5,0-5,0-7.5,0.1h-0.4v-0.4l-0.1-12.6v-0.5h0.5l14.9,0.1c5,0,10,0.1,15,0.2
		h0.3v0.3c0,2.1-0.1,4.3-0.1,6.4L185,101.6z M185,101.6l-0.1-6.4c0-2.1-0.1-4.2-0.1-6.3l0.3,0.3c-5,0-10,0.2-15,0.2l-14.9,0.1
		l0.5-0.5l-0.1,12.6l-0.4-0.4c2.5,0,4.9,0,7.4,0l7.4,0.1L185,101.6z"/>
</g>
<g id="freepik--Floor--inject-2">
	<polygon class="st2" points="4.8,401.8 40.6,401.5 76.4,401.5 148.1,401.2 219.7,401.5 255.5,401.5 291.3,401.8 255.5,402.2 
		219.7,402.2 148.1,402.3 76.4,402.2 40.6,402.2 	"/>
</g>
<g id="freepik--Shadow--inject-2" class="st3">
	<ellipse class="st4" cx="179" cy="430.7" rx="138.5" ry="14.6"/>
</g>
<g id="freepik--mouse-house--inject-2">
	<path class="st5" d="M372.6,392c0,4.3-0.2,7.7-0.2,10.1v0.2H220.3c0-1.2,0-2.7-0.1-4.4c0-0.7,0-1.5,0-2.2c0-0.2,0-0.4,0-0.6
		c0-0.3,0-0.7,0-1s0-0.5,0-0.8s0-0.5,0-0.8c0-0.5,0-1.1,0-1.7c0-3.2,0-6.8,0.1-10.7c0-0.5,0-1,0-1.5c0-0.4,0-0.9,0-1.3
		c0-1,0.1-2,0.1-3c0-0.7,0.1-1.3,0.1-2c0-0.3,0-0.5,0-0.8c0-0.8,0.1-1.6,0.1-2.5c0-0.1,0-0.2,0-0.4c0-0.6,0.1-1.2,0.1-1.9
		c0-0.5,0.1-1,0.1-1.5c0.2-2.2,0.4-4.4,0.7-6.6c0.1-0.9,0.2-1.9,0.3-2.8c0.1-0.4,0.1-0.9,0.2-1.3c0.5-3.6,1.1-7.2,1.9-10.9
		c0.1-0.8,0.3-1.5,0.5-2.3s0.3-1.5,0.5-2.3s0.4-1.5,0.6-2.3c0.2-0.8,0.4-1.5,0.6-2.3c0.4-1.5,0.9-3,1.3-4.5c0-0.1,0.1-0.2,0.1-0.3
		c0.4-1.4,0.9-2.8,1.4-4.2l0,0c9.4-26,28.6-48.3,67.2-48.3c11.1,0,20.7,1.8,28.8,5.1c14.7,5.9,24.8,16.3,31.9,28.7
		c0.6,1,1.1,1.9,1.6,2.9c11.9,23,13.9,51.9,14,71.1C372.6,387.5,372.6,389.8,372.6,392z"/>
	<path class="st6" d="M325.1,282.3c-2.5-0.2-5.1-0.3-7.8-0.3c-80.6,0-73.2,100.6-73.2,120.4h-23.8c0-20.6-7.8-125.1,76-125.1
		C306.2,277.1,315.9,278.8,325.1,282.3z"/>
</g>
<g id="freepik--Mouse--inject-2">
	<path class="st7" d="M81.3,401.6c-2.4,2.2-11.3,2.9-15.9-1.7s-6.1-18.2-5.5-22.7c0.6-4.4,20.1-57.7,25.4-70.3s-0.1-19.8-4-23.4
		S68,282.2,66,284c-2,1.7-3.5,6.8-3.5,6.8s2.1-4.5,5-5.7s9.1-1.6,12.1,0.5c2.9,2.2,6.7,10.7,3.2,17.3c-3.4,6.7-26.6,68-27.7,73.8
		c-1.3,7,1.3,20,6.7,26.1s15.9,6.8,16.9,7.3c1.1,0.5,1.1,2.1,1.1,2.1L81.3,401.6z"/>
	<path class="st8" d="M81.3,401.6c-2.4,2.2-11.3,2.9-15.9-1.7s-6.1-18.2-5.5-22.7c0.6-4.4,20.1-57.7,25.4-70.3s-0.1-19.8-4-23.4
		S68,282.2,66,284c-2,1.7-3.5,6.8-3.5,6.8s2.1-4.5,5-5.7s9.1-1.6,12.1,0.5c2.9,2.2,6.7,10.7,3.2,17.3c-3.4,6.7-26.6,68-27.7,73.8
		c-1.3,7,1.3,20,6.7,26.1s15.9,6.8,16.9,7.3c1.1,0.5,1.1,2.1,1.1,2.1L81.3,401.6z"/>
	<g class="st9">
		<path d="M77.8,403.8c-0.6,2-0.9,4-0.9,6.1h-0.2c0-1,0.1-2,0.2-3c0.1-1.1,0.4-2.1,0.7-3.1c0.1-0.2,0.2-0.4,0.2-0.6H78
			C78,403.3,77.9,403.5,77.8,403.8z"/>
		<path d="M70.2,402.7l-0.1,0.4c-0.3,1-0.5,2.1-0.7,3.1c0.1-0.5,0.1-1.1,0.2-1.6s0.2-1,0.3-1.6l0.1-0.4L70.2,402.7z"/>
		<path d="M70.8,408.3c0,0.1,0,0.2,0,0.4C70.7,408.6,70.7,408.5,70.8,408.3c-0.1-0.4-0.1-0.8-0.1-1.3c0.1-0.5,0.1-1.1,0.1-1.6
			c0.1-0.9,0.3-1.7,0.5-2.5h0.3c-0.3,0.8-0.4,1.7-0.6,2.5C70.9,406.5,70.8,407.4,70.8,408.3z"/>
		<path d="M73.2,407.4c-0.1,0.5-0.1,1.1-0.2,1.6l-0.3-0.1c0.1-0.5,0.1-1.1,0.2-1.6c0.2-1,0.5-2.1,0.9-3
			C73.5,405.4,73.3,406.4,73.2,407.4z"/>
		<path d="M67.9,401.7c-0.2,0.5-0.3,1-0.5,1.4c-0.3,1-0.5,2.1-0.6,3.1c0,0.1,0,0.3,0,0.4l-0.2-0.1c0-0.1,0-0.2,0-0.4
			c0.1-1.1,0.2-2.1,0.5-3.1c0.1-0.5,0.3-1,0.5-1.5L67.9,401.7z"/>
		<path d="M62.6,395.4c-0.1,0.2-0.2,0.3-0.3,0.4c-1,1.5-1.7,3.2-2.2,4.9v-0.1c0-0.2,0.1-0.4,0.1-0.6c0.2-0.5,0.3-1,0.5-1.5
			c0.4-1,0.8-2,1.4-2.9c0.1-0.2,0.3-0.4,0.4-0.6L62.6,395.4z"/>
		<path d="M63.3,396.9c-0.2,0.4-0.5,0.8-0.6,1.3c-0.4,1-0.8,1.9-1.1,3c-0.1,0.4-0.2,0.7-0.3,1.1c-0.1-0.1-0.1-0.1-0.2-0.2
			c0-0.4,0.1-0.7,0.2-1c0.2-1,0.6-2.1,1.1-3c0.2-0.5,0.5-1,0.8-1.5C63.2,396.7,63.3,396.8,63.3,396.9z"/>
		<path d="M64.5,400.3c-0.4,1-0.8,2-1,3c-0.1,0.3-0.2,0.7-0.2,1l-0.2-0.2c0.1-0.3,0.1-0.6,0.2-0.9C63.5,402.2,63.9,401.2,64.5,400.3
			z"/>
		<path d="M61.8,393c-0.4,0.5-0.8,1-1.2,1.5c-0.6,0.8-1.3,1.7-1.8,2.6c0.2-0.4,0.5-1,0.8-1.4s0.6-0.9,0.9-1.3
			c0.4-0.5,0.8-1.1,1.3-1.6C61.8,392.8,61.8,392.9,61.8,393z"/>
		<path d="M60.1,384.4c-0.3,0.1-0.5,0.4-0.7,0.5c-0.8,0.6-1.6,1.3-2.4,2c0.3-0.4,0.7-0.8,1.1-1.2s0.8-0.7,1.2-1
			c0.3-0.2,0.5-0.4,0.8-0.6C60.1,384.2,60.1,384.3,60.1,384.4z"/>
		<path d="M60.3,386c-0.6,0.4-1.1,0.9-1.6,1.4c-0.8,0.7-1.5,1.5-2.2,2.3c0.3-0.4,0.6-0.9,1-1.2c0.3-0.4,0.7-0.8,1.1-1.2
			c0.5-0.6,1.1-1.1,1.8-1.6C60.3,385.8,60.3,385.9,60.3,386z"/>
		<path d="M60.8,388.8L60.8,388.8c-0.6,0.5-1.1,0.9-1.6,1.4c-0.7,0.7-1.4,1.6-2.1,2.4c-0.1,0.2-0.2,0.3-0.3,0.4l-0.1-0.4
			c0.1-0.1,0.1-0.2,0.2-0.3c0.6-0.9,1.4-1.6,2.1-2.4c0.5-0.5,1.1-0.9,1.7-1.3L60.8,388.8z"/>
		<path d="M59.8,380.2c-1-0.1-2.1-0.1-3.1,0c-0.7,0-1.3,0.1-1.9,0.2c0-0.1,0-0.2,0-0.3c0.6-0.1,1.3-0.1,1.9-0.3
			c1-0.1,2.1-0.1,3.1,0.1C59.8,380.1,59.8,380.2,59.8,380.2z"/>
		<path d="M61.3,372.6c0,0.1-0.1,0.2-0.1,0.3c-0.8-0.1-1.5-0.2-2.2-0.3c-0.8-0.1-1.7-0.1-2.5-0.1v-0.1c0.3,0,0.7,0,1-0.1
			c0.5,0,1.1-0.1,1.6,0C59.8,372.4,60.6,372.5,61.3,372.6z"/>
		<path d="M60.9,373.9l-0.1,0.3c-0.3,0-0.6-0.1-0.9-0.1c-1.1-0.1-2.1-0.1-3.1-0.1c-0.3,0-0.5,0-0.8,0c0-0.1,0-0.1,0.1-0.2
			c0.2,0,0.5-0.1,0.8-0.1c1.1-0.1,2.1-0.1,3.2,0C60.3,373.9,60.6,373.9,60.9,373.9z"/>
		<path d="M58.5,376.5c-1.1-0.1-2.1-0.1-3.1,0h-0.1c0-0.1,0-0.2,0-0.2h0.1C56.4,376.2,57.5,376.3,58.5,376.5z"/>
		<path d="M62.1,370.3c0,0.1-0.1,0.1-0.1,0.2c-0.2,0-0.3-0.1-0.5-0.1c-1-0.2-2.1-0.3-3.2-0.4c-0.4,0-0.7,0-1.1-0.1
			c0-0.1,0.1-0.2,0.1-0.3c0.3,0,0.7,0,0.9,0.1c1.1,0.1,2.1,0.2,3.2,0.4L62.1,370.3z"/>
		<path d="M64.5,363.2c0,0.1-0.1,0.2-0.1,0.3c-1-0.4-1.9-0.6-2.9-0.8c-0.5-0.1-1-0.2-1.5-0.2l0.1-0.1c0.5,0.1,1,0.1,1.5,0.2
			C62.5,362.6,63.6,362.9,64.5,363.2z"/>
		<path d="M64.1,364.5c0,0.1-0.1,0.2-0.1,0.2c-0.6-0.2-1.1-0.3-1.7-0.4c-0.9-0.2-1.9-0.3-2.8-0.4c0-0.1,0.1-0.2,0.1-0.2
			c0.9,0.1,1.9,0.2,2.8,0.4C62.9,364.2,63.5,364.3,64.1,364.5z"/>
		<path d="M60.5,366.5c-0.6-0.1-1.3-0.2-1.9-0.3c0-0.1,0-0.1,0.1-0.2C59.3,366.2,60,366.3,60.5,366.5z"/>
		<path d="M67.2,355.6c0,0.1,0,0.1-0.1,0.2c-0.9-0.3-1.9-0.5-2.8-0.7c0.5,0.1,1.1,0.1,1.6,0.2C66.4,355.4,66.7,355.5,67.2,355.6z"/>
		<path d="M66.7,357c0,0.1-0.1,0.2-0.1,0.3c-0.6-0.2-1.1-0.3-1.8-0.4c-0.9-0.2-1.8-0.3-2.7-0.4v-0.1c0.4,0,0.8,0,1.1,0
			c0.5,0.1,1.1,0.1,1.6,0.2C65.5,356.7,66.1,356.8,66.7,357z"/>
		<path d="M66,359.7l-0.2-0.1c-0.9-0.3-1.9-0.6-2.9-0.7c-0.5-0.1-1-0.2-1.5-0.2c0-0.1,0.1-0.2,0.1-0.3c0.5,0.1,1,0.1,1.5,0.2
			c1,0.2,2,0.5,2.9,0.9L66,359.7z"/>
		<path d="M68.1,353.2c0,0.1-0.1,0.2-0.1,0.3c-0.2-0.1-0.5-0.2-0.6-0.2c-1-0.3-2-0.5-3.1-0.7c-0.2,0-0.5-0.1-0.6-0.1
			c0-0.1,0-0.1,0.1-0.2l0.6,0.1c1.1,0.1,2.1,0.4,3.1,0.7C67.6,353.1,67.9,353.1,68.1,353.2z"/>
		<path d="M71.4,343.9c0,0.1,0,0.1-0.1,0.2c-0.7-0.2-1.4-0.4-2.1-0.5c0.5,0.1,1,0.1,1.5,0.2L71.4,343.9z"/>
		<path d="M70.1,347.4c0,0.1-0.1,0.2-0.1,0.2l-0.5-0.2c-1-0.4-2-0.6-3-0.8c0.5,0.1,1.1,0.1,1.6,0.2s1,0.2,1.6,0.4L70.1,347.4z"/>
		<path d="M73.9,337.2c0,0.1-0.1,0.2-0.1,0.3c-0.7-0.3-1.5-0.7-2.3-0.9c-0.6-0.2-1.1-0.4-1.7-0.5l0.1-0.1h0.2c0.5,0.1,1,0.2,1.6,0.4
			C72.3,336.6,73.1,336.8,73.9,337.2z"/>
		<path d="M72.9,339.8c0,0.1-0.1,0.2-0.1,0.3c-0.4-0.2-0.8-0.3-1.2-0.4c-1-0.4-1.9-0.6-2.9-0.8l0.1-0.2c1,0.2,2,0.4,2.9,0.8
			C72.1,339.4,72.5,339.6,72.9,339.8z"/>
		<path d="M76.8,327c-1-0.5-1.9-0.9-2.9-1.2l-0.2-0.1c0-0.1,0.1-0.2,0.1-0.2l0.2,0.1C74.9,326,76,326.4,76.8,327z"/>
		<path d="M74.7,334.9l-0.1,0.2l-0.2-0.1c-1-0.5-1.9-0.8-3-1.1c-0.3-0.1-0.5-0.2-0.8-0.2l0.1-0.3l0.8,0.2c1,0.3,2,0.7,2.9,1.2
			L74.7,334.9z"/>
		<path d="M86.3,304.6L86.3,304.6c-0.7-0.4-1.5-0.8-2.2-1.1c-0.4-0.2-0.8-0.3-1.2-0.5c0.1-0.1,0.1-0.2,0.1-0.2
			c0.4,0.2,0.8,0.3,1.1,0.5C84.9,303.7,85.6,304.1,86.3,304.6z"/>
		<path d="M84.6,306.5c-0.9-0.5-1.9-0.9-2.8-1.2l0,0c0-0.1,0.1-0.1,0.1-0.2C82.9,305.5,83.7,306,84.6,306.5z"/>
		<path d="M86.7,291.5c-0.8,0-1.6,0.1-2.4,0.2c0.5-0.1,1-0.2,1.6-0.3l0.8-0.1C86.7,291.4,86.7,291.5,86.7,291.5z"/>
		<path d="M87.1,293.1c-0.4,0-0.7,0-1,0c-0.8,0-1.5,0-2.3,0.1v-0.1c0.2,0,0.5-0.1,0.7-0.2c0.5-0.1,1.1-0.1,1.6-0.1
			c0.3,0,0.7,0,0.9,0C87.1,292.9,87.1,293.1,87.1,293.1z"/>
		<path d="M87.3,300.5c0,0.1,0,0.1,0,0.2c-0.7-0.3-1.4-0.5-2.1-0.7c0.5,0.1,1,0.2,1.6,0.3L87.3,300.5z"/>
		<path d="M86.5,295.8c-0.8-0.1-1.5-0.1-2.3-0.1c0-0.1,0-0.1,0-0.2l0,0C85,295.5,85.7,295.6,86.5,295.8z"/>
		<path d="M85.1,288c-0.6,0.2-1.2,0.5-1.8,0.7c-0.3,0.1-0.6,0.3-0.9,0.5l-0.1-0.1c0.3-0.2,0.6-0.3,1-0.5c0.6-0.3,1.1-0.5,1.7-0.7
			L85.1,288z"/>
		<path d="M82.2,285.3c-0.6,0.3-1.1,0.7-1.7,1.1l-0.1-0.1C80.9,285.9,81.6,285.6,82.2,285.3z"/>
		<path d="M76,281.7c-0.4,0.6-0.8,1.2-1.1,1.8c-0.1,0.2-0.2,0.4-0.3,0.6h-0.3c0.1-0.2,0.3-0.5,0.4-0.7
			C75.1,282.8,75.4,282.3,76,281.7L76,281.7z"/>
		<path d="M73.6,282.2c-0.4,0.6-0.7,1.2-1.1,1.9h-0.2C72.7,283.5,73.1,282.8,73.6,282.2z"/>
		<path d="M71.5,282.1c-0.1,0.6-0.3,1.2-0.3,1.8c0.1-0.5,0.1-1.1,0.1-1.6c0-0.1,0-0.1,0-0.2L71.5,282.1z"/>
		<path d="M69.6,284.5h-0.2c0-0.7,0-1.4,0.1-2l0.3-0.1C69.6,283.1,69.6,283.8,69.6,284.5z"/>
		<path d="M68.2,283.5c-0.1,0.5-0.2,1-0.2,1.5h-0.1C67.9,284.5,68.1,284,68.2,283.5z"/>
		<path d="M82,284.1c-0.6,0.3-1.3,0.7-1.9,1.1l-0.5,0.4c-0.1-0.1-0.2-0.1-0.2-0.1c0.2-0.2,0.4-0.3,0.6-0.4
			C80.6,284.7,81.3,284.4,82,284.1L82,284.1z"/>
		<path d="M84.2,286.7c-0.6,0.3-1.2,0.6-1.8,1c0.5-0.3,0.8-0.6,1.3-0.9l0.4-0.3L84.2,286.7z"/>
		<path d="M76.9,329.1l-0.1,0.3l-0.2-0.1c-1-0.5-1.9-0.9-2.9-1.2c-0.3-0.1-0.5-0.2-0.8-0.3c0-0.1,0-0.1,0.1-0.2
			c0.3,0,0.6,0.1,0.8,0.2c1,0.3,2,0.6,2.9,1.2L76.9,329.1z"/>
		<path d="M79.4,322.4c0,0.1,0,0.1,0,0.1l-1.2-0.5C78.5,322.1,78.9,322.3,79.4,322.4z"/>
		<path d="M78.4,324.9l-0.1,0.2l-0.6-0.2c-1-0.4-2-0.7-3-0.9c0.5,0.1,1,0.2,1.6,0.3c0.5,0.1,1,0.2,1.5,0.5
			C78,324.8,78.2,324.9,78.4,324.9z"/>
		<path d="M83.3,312l-0.1,0.2c-0.3-0.2-0.6-0.3-1-0.4c-0.9-0.3-1.9-0.6-2.9-0.8c0-0.1,0.1-0.2,0.1-0.2c1,0.2,2,0.5,2.9,0.8
			C82.7,311.8,83.1,311.9,83.3,312z"/>
		<path d="M80.3,319.9l-0.1,0.3c-0.6-0.2-1.1-0.5-1.8-0.7c-0.7-0.3-1.4-0.5-2.1-0.6v-0.1c0.2,0,0.4,0,0.6,0.1c0.5,0.1,1,0.2,1.6,0.4
			C79.1,319.4,79.7,319.6,80.3,319.9z"/>
		<path d="M82.5,314.3L82.5,314.3l-0.7-0.3L82.5,314.3z"/>
		<path d="M83.8,308.5c-0.9-0.5-1.9-0.8-2.9-1.1c0-0.1,0.1-0.1,0.1-0.2C82,307.5,82.9,307.9,83.8,308.5z"/>
		<path d="M69.2,349.8c0,0.1,0,0.1,0,0.1c-0.6-0.3-1.2-0.5-1.9-0.6c-0.8-0.2-1.6-0.4-2.4-0.6c0-0.1,0.1-0.2,0.1-0.3
			c0.8,0.2,1.6,0.4,2.4,0.6C68.1,349.3,68.7,349.5,69.2,349.8z"/>
	</g>
	<path class="st2" d="M98.7,429c1.7,0,3.4,0.2,5.1,0.5c1.9,0.4,3.7,1.1,5.3,2.2c0.5,0.3,1-0.4,0.6-0.7c-3.3-2-7.2-3-11.1-2.8
		C98,428.2,98.1,429.1,98.7,429z"/>
	<path class="st2" d="M97,429c1.9,0.4,3.5,1.2,5,2.4c1.5,1.2,2.8,2.6,3.8,4.3c0.3,0.5,1.1,0.1,0.8-0.4c-1-1.8-2.5-3.4-4.1-4.6
		c-1.6-1.3-3.4-2.2-5.4-2.6C96.5,428.1,96.4,428.9,97,429L97,429z"/>
	<path class="st2" d="M136.9,424c1.7,0,3.4,0.2,5.1,0.5c1.9,0.4,3.7,1.1,5.3,2.2c0.5,0.3,1-0.4,0.6-0.7c-3.3-2-7.2-3-11.1-2.8
		C136.1,423.2,136.3,424.1,136.9,424L136.9,424z"/>
	<path class="st2" d="M135.1,424c1.9,0.4,3.5,1.2,5,2.4c1.5,1.2,2.8,2.6,3.8,4.3c0.2,0.5,1.1,0.1,0.8-0.4c-1-1.8-2.5-3.4-4.1-4.6
		c-1.6-1.3-3.4-2.2-5.4-2.6C134.7,423.1,134.6,423.9,135.1,424L135.1,424z"/>
	<path class="st7" d="M125.7,313c0,0-13.7-1.8-22.5-11.1c-7.3-7.6-9.9-11.2-12-9.8s-2.5,28.6,18.2,37.1c7.1,2.9,15.5-9.5,15.5-9.5
		L125.7,313z"/>
	<path class="st8" d="M125.7,313c0,0-13.7-1.8-22.5-11.1c-7.3-7.6-9.9-11.2-12-9.8s-2.5,28.6,18.2,37.1c7.1,2.9,15.5-9.5,15.5-9.5
		L125.7,313z"/>
	<path class="st10" d="M125.7,313l-0.8,6.8c0,0-8.4,12.3-15.5,9.5c-5.2-2.1-9.5-5.7-12.6-10.2c5.5-2.7,13.8-6.9,18.4-9
		C118.6,311.4,122.1,312.4,125.7,313z"/>
	<path class="st11" d="M104.9,357.6c0,0-6.5-16.6-5-24.2s11.1-19.6,18.3-22c7.2-2.5,38.3,5.9,47.4,17.9c2,2.6-0.6,6.4-2.1,8.5
		c-1.8,2.6-7.8,8.1-12.6,9.3c0,0-0.2,9.1-10.4,12.9c0,0,1.5,15.7,3.4,24.4c1.9,8.7,7.6,23.4,2,32.9s-16.6,7.5-24,7.7
		c-7.4,0.2-20.5,5.8-31.1,3.1c-10.6-2.8-13.5-15.3-8.9-28C86.9,385.9,94.6,369,104.9,357.6z"/>
	<path class="st11" d="M111,324.5c0,0-4-0.9-11.6-5s-19.6-14-33.2-8.8c-15.6,6.1-24.6,40.8,2.1,55c23,12.2,44.5-21.5,44.5-21.5
		L111,324.5z"/>
	<path class="st12" d="M112.8,344.3c0,0-21.4,33.7-44.5,21.5c-6-3.2-10.2-7.4-13-12.2c-2.3-5.4-3.5-11.2-3.3-17.1
		c0.3-7,2.6-16.9,12.2-21.4c9.7-4.5,20.6,2.1,29,8s16.5,7.3,18.3,8.5l0,0C115.6,336.5,112.8,344.3,112.8,344.3z"/>
	<path class="st2" d="M94.1,316.4l4.1,2.2c1.4,0.8,2.8,1.5,4.2,2.2c1.4,0.7,2.8,1.4,4.2,2c0.7,0.3,1.4,0.6,2.1,0.9
		c0.3,0.2,0.7,0.3,1.1,0.4c0.3,0.2,0.7,0.3,1.1,0.4c-1.6-0.2-3.1-0.7-4.5-1.3s-2.9-1.2-4.3-1.9c-1.4-0.7-2.8-1.5-4.1-2.3
		C96.7,318.1,95.3,317.3,94.1,316.4z"/>
	<path class="st2" d="M103.1,356.1l1.2-1.5l1.2-1.5l2.5-2.9c0.8-1,1.6-1.9,2.4-3c0.4-0.5,0.8-1,1.2-1.5c0.4-0.6,0.8-1,1.2-1.5
		c-0.6,1.2-1.2,2.3-2,3.3c-0.7,1-1.5,2.1-2.4,3c-0.8,1-1.7,1.9-2.6,2.8C105,354.4,104.1,355.3,103.1,356.1z"/>
	<path class="st2" d="M107.5,323.4c0.2-0.1,0.5-0.2,0.7-0.2c0.7-0.2,1.5,0,2.2,0.3c-0.2,0-0.5-0.1-0.7,0H109
		C108.5,323.4,108,323.4,107.5,323.4z"/>
	<path class="st2" d="M110.6,347.4c0.4-0.4,0.8-0.7,1.2-1c0.4-0.3,0.8-0.6,1.2-0.9c-0.2,0.5-0.5,0.9-1,1.3
		C111.6,347.2,111.2,347.3,110.6,347.4z"/>
	<path class="st2" d="M111.8,337.2l-4.2-0.7c-1.4-0.2-2.8-0.4-4.2-0.6c-2.8-0.4-5.6-0.7-8.4-0.9c-2.8-0.1-5.6,0.5-8.3,1.3
		c-1.3,0.4-2.7,0.9-4,1.4s-2.6,1.1-3.9,1.6c2.5-1.4,5.1-2.5,7.8-3.5c2.7-1,5.6-1.5,8.4-1.5c2.8,0.2,5.7,0.5,8.5,1
		C106.3,336,109,336.5,111.8,337.2z"/>
	<path class="st2" d="M109.4,337.9c-1.7,0.2-3.5,0.2-5.3,0.5c-1.7,0.2-3.5,0.4-5.2,0.8c-0.8,0.1-1.7,0.4-2.5,0.7
		c-0.8,0.3-1.6,0.6-2.4,1s-1.5,0.9-2.2,1.4s-1.4,1.1-2,1.7c1.1-1.4,2.4-2.6,4-3.5c0.8-0.4,1.6-0.8,2.4-1.1c0.9-0.3,1.7-0.5,2.6-0.7
		c1.8-0.3,3.5-0.5,5.3-0.6C105.9,337.8,107.6,337.9,109.4,337.9z"/>
	<path class="st2" d="M155.3,351.3c0.2-2.6,1.2-5,2.9-6.9c0.4-0.4-0.3-0.9-0.7-0.6c-0.9,1-1.7,2.2-2.2,3.5c-0.5,1.2-0.8,2.5-0.9,3.8
		C154.4,351.7,155.3,351.8,155.3,351.3L155.3,351.3z"/>
	<path class="st2" d="M156,351.9c0.4-1.2,1.2-2.2,2.1-3.1c1.1-1,2.4-1.8,3.8-2.3c0.6-0.2,0.2-1-0.4-0.8c-0.4,0.1-0.9,0.3-1.3,0.6
		c-1,0.5-2,1.1-2.8,1.9c-1.1,0.9-1.8,2-2.3,3.3C155,352.2,155.8,352.5,156,351.9L156,351.9z"/>
	<path class="st2" d="M156.2,352.7c0.6-0.9,1.5-1.5,2.4-2c1.2-0.7,2.6-1,4-0.9c0.2,0,0.5-0.1,0.5-0.4s-0.1-0.5-0.4-0.5
		c-1.5-0.1-3.1,0.2-4.5,1c-1.1,0.5-2,1.3-2.8,2.3C155.2,352.7,155.9,353.2,156.2,352.7L156.2,352.7z"/>
	<path class="st11" d="M127.7,362.8c0,0,14.6,4.2,26.6-11.9c0,0,2.3-1,2.6,1.4c0,0-0.9,17.3-11.9,23.8c-11.2,6.6-22.9,2.8-22.9,2.8
		S115.7,367.5,127.7,362.8z"/>
	<path class="st2" d="M140.6,361.7c-1.5,0.9-3,1.4-4.7,1.6c-0.8,0.1-1.7,0.2-2.5,0.2s-1.6-0.1-2.5-0.3l2.5-0.2
		c0.8-0.1,1.6-0.2,2.4-0.3s1.6-0.3,2.4-0.4C139,362.2,139.8,362,140.6,361.7z"/>
	<path class="st2" d="M122,378.8c1,0.2,1.9,0.4,2.9,0.6c1,0.1,1.9,0.2,2.9,0.3c1.9,0.1,3.9,0,5.9-0.2c1.9-0.2,3.9-0.6,5.7-1.2
		c1.9-0.6,3.7-1.3,5.5-2.3c-0.4,0.2-0.8,0.5-1.3,0.7c-0.4,0.3-0.8,0.5-1.3,0.7l-1.4,0.6c-0.4,0.2-0.9,0.4-1.4,0.6
		c-0.9,0.4-1.9,0.6-2.9,0.8c-0.5,0.1-1,0.2-1.5,0.3l-0.7,0.2l-0.7,0.1c-2,0.2-4,0.2-6,0.1C125.9,379.9,123.9,379.5,122,378.8z"/>
	<path class="st2" d="M123.4,379.9c0.3,0,0.6,0,0.8,0c0.3,0,0.6,0,0.8,0c0.5,0,1.1-0.1,1.7-0.1c-0.5,0.4-1.1,0.5-1.7,0.6
		c-0.3,0-0.6,0-0.9-0.1C123.9,380.2,123.6,380.1,123.4,379.9z"/>
	<path class="st2" d="M140,335.7c-0.1-0.1-0.1,0.3,0,0.4c2,2.3,3.9,5.3,2.1,7.7c0,0.1,0,0.1,0,0.1c0.1,0,0.1,0,0.1,0l0,0
		C144.9,341.4,142.4,337.5,140,335.7z"/>
	<path class="st2" d="M136,335.3c-4.5,2.9,0.9,10.4,5,7.6C145.2,340.2,139.8,332.8,136,335.3z"/>
	<path class="st2" d="M126.8,337.7c-0.4-0.8-0.7-1.7-0.8-2.6c-0.1-1,0-1.8,0.3-2.8c0.3-0.9,0.7-1.8,1.4-2.4c0.7-0.7,1.4-1.1,2.4-1.4
		c-0.6,0.6-1.2,1.3-1.7,2c-0.4,0.7-0.8,1.4-1,2.2c-0.2,0.8-0.4,1.6-0.5,2.4C126.8,336,126.8,336.8,126.8,337.7z"/>
	<path class="st2" d="M126.3,337.7c-0.6-0.7-1-1.5-1.3-2.4s-0.4-1.8-0.3-2.8c0.1-0.9,0.4-1.9,0.9-2.7c0.5-0.8,1.2-1.4,2-1.8
		c-0.4,0.7-0.9,1.4-1.2,2.2c-0.3,0.7-0.5,1.5-0.5,2.4c-0.1,0.8-0.1,1.7,0,2.4C126,336,126.2,336.9,126.3,337.7z"/>
	<path class="st13" d="M140,422.8c-5.7,2.8-12.7,1.8-18,2s-13.3,3-21.3,3.7c0.6-6.3,2.8-19.8,10.3-32c9.7-15.8,21.3-19.6,23.3-5.9
		C135.7,401.2,134.9,410.5,140,422.8z"/>
	<path class="st2" d="M140.5,359.8c-1.7,0.5-3.5,0.8-5.3,0.8s-3.6-0.2-5.4-0.7c-0.9-0.2-1.7-0.6-2.6-0.9c-0.8-0.4-1.6-0.8-2.3-1.3
		c-0.4-0.2-0.8-0.5-1.1-0.8l-1-0.9c-0.3-0.3-0.6-0.6-1-0.9c-0.3-0.3-0.6-0.7-0.9-1c1.3,1.2,2.7,2.3,4.2,3.2c0.8,0.4,1.6,0.8,2.3,1.2
		c0.8,0.3,1.6,0.6,2.5,0.8c1.7,0.5,3.5,0.8,5.2,0.8h1.3c0.4,0,0.9,0,1.3-0.1C138.8,360,139.7,360,140.5,359.8z"/>
	<path class="st2" d="M166.1,332.8c0,0-5.8-0.3-5.6-2.1c0.1-0.8,4.9-3,6.4-2.8C168.5,328.1,166.1,332.8,166.1,332.8z"/>
	<circle class="st13" cx="136.9" cy="348.2" r="4.2"/>
</g>
<g id="freepik--Crumbs--inject-2">
	<path class="st7" d="M199.7,418.6c0-1.4,2.6-3.2,3.3-3.6s4-0.7,4.2-1.2c0.2-0.6,3.4-1.2,4.5-1.2c1.2,0.1,2.7,2.1,2.9,3.7
		s-0.8,3.1-2.3,3.6c-1.4,0.3-4.1,1.6-5.2,1.7C206.2,421.7,199.7,420.1,199.7,418.6z"/>
	<path class="st14" d="M199.7,418.6c0-1.4,2.6-3.2,3.3-3.6s4-0.7,4.2-1.2c0.2-0.6,3.4-1.2,4.5-1.2c1.2,0.1,2.7,2.1,2.9,3.7
		s-0.8,3.1-2.3,3.6c-1.4,0.3-4.1,1.6-5.2,1.7C206.2,421.7,199.7,420.1,199.7,418.6z"/>
	<path class="st7" d="M188.5,413.8c-0.7-1,0.9-1.8,1.7-2.9s3.5-0.7,4-0.3c0.7,0.9,1,2.1,0.9,3.3c-0.8,1.1-1.9,1.8-3.2,2.1
		C191,415.8,189,414.4,188.5,413.8z"/>
	<path class="st14" d="M188.5,413.8c-0.7-1,0.9-1.8,1.7-2.9s3.5-0.7,4-0.3c0.7,0.9,1,2.1,0.9,3.3c-0.8,1.1-1.9,1.8-3.2,2.1
		C191,415.8,189,414.4,188.5,413.8z"/>
	<path class="st7" d="M201.3,411.8c0.2-1.6,3.3-1.1,3.8-0.3s-1.3,2.5-2.1,1.8S201.2,412.4,201.3,411.8z"/>
	<path class="st15" d="M201.3,411.8c0.2-1.6,3.3-1.1,3.8-0.3s-1.3,2.5-2.1,1.8S201.2,412.4,201.3,411.8z"/>
	<path class="st7" d="M190.2,421.1c0.5-0.6,2-0.8,2.2-0.4s0.7,1.1,0.4,1.4c-0.4,0.3-1.4,0.9-1.8,0.6S189.9,421.5,190.2,421.1z"/>
	<path class="st15" d="M190.2,421.1c0.5-0.6,2-0.8,2.2-0.4s0.7,1.1,0.4,1.4c-0.4,0.3-1.4,0.9-1.8,0.6S189.9,421.5,190.2,421.1z"/>
	<path class="st7" d="M180,416.3c0.3-1,1.7-1.7,2.6-1.8s2.6,0.6,2.5,1.3c-0.1,0.6-1.4,1.2-1.6,1.7c-0.2,0.5-0.9,1.5-1.6,1.2
		S179.7,417.4,180,416.3z"/>
	<path class="st14" d="M180,416.3c0.3-1,1.7-1.7,2.6-1.8s2.6,0.6,2.5,1.3c-0.1,0.6-1.4,1.2-1.6,1.7c-0.2,0.5-0.9,1.5-1.6,1.2
		S179.7,417.4,180,416.3z"/>
</g>
<g>
	<path class="st7" d="M368.5,407c-0.4,1.6-2.1,2.7-3.9,1.7c-0.1,0-0.1-0.1-0.2-0.1l0,0c-1-0.7-1-1.9-0.7-2.8
		c0.1-0.3,0.2-0.5,0.4-0.7c0.1-0.1,0.2-0.3,0.3-0.3C366.2,404.1,369,405.5,368.5,407z"/>
	<path class="st7" d="M394.3,365.5c-0.3,0.5-0.9,0.9-1.4,0.9c-0.9,0.1-1.6-0.5-1.6-1.2c0-0.6,0.2-1.2,0.8-1.5c0.4-0.3,1-0.2,1.4,0.1
		C394.1,364.2,394.4,364.9,394.3,365.5z"/>
	<path class="st7" d="M374.5,315.4c-0.6-0.3-1.2-0.6-1.9-0.8h-0.1c0-0.1,0.1-0.2,0.1-0.3h0.1C373.3,314.7,373.9,315,374.5,315.4z"/>
	<path class="st7" d="M373.5,403.4c-0.3-0.1-0.6-0.3-0.9-0.5c-0.1-0.1-0.2-0.1-0.3-0.2c-0.2-0.1-0.4-0.3-0.6-0.5h-38
		c-1.2-1.4-1.7-2-1.7-2s0.5-2.7-0.3-4.7c-0.1-0.4-0.3-0.7-0.6-1c-0.2-0.2-0.4-0.4-0.6-0.5c-0.1,0-0.2-0.1-0.3-0.2
		c-0.1-0.1-0.3-0.1-0.4-0.2h-0.1c-0.9-0.4-2-0.5-2.9-0.4h-0.2c-0.1,0-0.1,0-0.2,0l0,0c-0.2,0-0.4,0-0.5,0s-0.1,0-0.2,0s-0.1,0-0.1,0
		s-0.9-0.1-2.1-1.3c-0.1-0.1-0.2-0.2-0.3-0.4l0,0c-1.2-1.7-4.2-2-4.2-2c0-0.6-0.1-1.1-0.2-1.6c-0.2-0.8-0.6-1.4-1.1-2
		c-0.7-0.8-2-0.7-3.3-0.2c-1.5,0.5-2.8,1.3-2.8,1.3s-6.8-17.8-6-20.8s2.7-6.5,3.6-10.3c0.8-3.8-0.3-6.4,2.7-11.8
		s10.5-16.2,13.5-18.1c2.9-1.9,6.4-5,7.9-5.8c1.5-0.6,14.7-7.8,23.8-9.4c0.6,1,1.1,1.9,1.6,2.9c11.9,23,13.9,51.9,14,71.1
		c0,2.5,0,4.9,0,7c0,4.3-0.2,7.7-0.2,10.1C372.7,402.6,373.1,403,373.5,403.4z"/>
	<g>
		<path class="st12" d="M368.5,407c-0.4,1.6-2.1,2.7-3.9,1.7c-0.1,0-0.1-0.1-0.2-0.1l0,0c-1-0.7-1-1.9-0.7-2.8
			c0.1-0.3,0.2-0.5,0.4-0.7c0.1-0.1,0.2-0.3,0.3-0.3C366.2,404.1,369,405.5,368.5,407z"/>
		<path class="st12" d="M373.5,403.4c-0.3-0.1-0.6-0.3-0.9-0.5c-0.1-0.1-0.2-0.1-0.3-0.2c-0.2-0.1-0.4-0.3-0.6-0.5h-35.4
			c0.1-1,0.4-3.8-0.9-5.3c-0.8-1-2.3-1.3-3.5-1.4h-0.1c-1.1-0.1-2,0.1-2,0.1s-1.1,0-2.4-1.7c-0.2-0.3-0.4-0.5-0.7-0.7c0,0,0,0-0.1,0
			l0,0c-0.2-0.1-0.4-0.3-0.6-0.4h-0.1c-0.9-0.5-1.9-0.7-2.4-0.8c-0.2,0-0.3,0-0.3,0c0-0.1,0-0.2,0-0.4c-0.1-1.2-0.5-2.4-1.4-3.3
			c-0.7-0.8-1.9-0.7-3-0.3c-1.6,0.5-3.1,1.4-3.1,1.4s-0.6-1.5-1.3-3.6c-1.9-5.4-5.2-15-4.7-17.1c0.8-3,2.7-6.5,3.6-10.3
			c0.8-3.8-0.3-6.4,2.7-11.8s10.5-16.2,13.5-18.1c2.9-1.9,6.4-5,7.9-5.8c1.3-0.5,12.4-6.6,21.2-8.9c11.9,23,13.9,51.9,14,71.1
			c0,2.5,0,4.9,0,7c0,4.3-0.2,7.7-0.2,10.1C372.7,402.6,373.1,403,373.5,403.4z"/>
		<path class="st12" d="M378.6,317.7c-0.3-0.1-0.6-0.2-0.9-0.4c-0.3-0.2-0.6-0.3-1-0.5l0,0c-0.7-0.4-1.4-0.9-2.2-1.3
			c0.2,0.1,0.4,0.2,0.5,0.3l0,0C376.3,316.3,377.5,317,378.6,317.7z"/>
		<path class="st12" d="M394.3,365.5c-0.3,0.5-0.9,0.9-1.4,0.9c-0.9,0.1-1.6-0.5-1.6-1.2c0-0.6,0.2-1.2,0.8-1.5
			c0.4-0.3,1-0.2,1.4,0.1C394.1,364.2,394.4,364.9,394.3,365.5z"/>
	</g>
	<path class="st7" d="M368.5,407c-0.4,1.6-2.1,2.7-3.9,1.7c-0.1,0-0.1-0.1-0.2-0.1c-0.9-0.7-0.9-1.9-0.7-2.7
		c0.1-0.3,0.2-0.5,0.4-0.7c0.1-0.1,0.2-0.3,0.3-0.3C366.2,404.1,369,405.5,368.5,407z"/>
	<path class="st10" d="M367.5,405.3c-0.5-0.1-2.1-0.1-2.7,0.5c-0.4,0.6-1.1,1.8-0.4,2.8l0,0c-1-0.7-1-1.9-0.7-2.8
		c0.1-0.3,0.2-0.5,0.4-0.7c0.1-0.1,0.2-0.2,0.3-0.2C365.4,404.6,366.5,404.7,367.5,405.3z"/>
	<path class="st7" d="M322,344.4c3.8-2.6,8.8,2.7,7.5,6.3s-5.8,4-8,2.5C319.2,351.8,317.8,347.2,322,344.4z"/>
	<path class="st14" d="M373.5,403.4c-0.3-0.1-0.6-0.3-0.9-0.5c-0.1-0.1-0.2-0.1-0.3-0.2c-0.2-0.1-0.4-0.3-0.6-0.5
		c-0.1-0.1-0.2-0.2-0.3-0.3c-0.1-0.1-0.2-0.3-0.4-0.4c-3.3-3.9-3.4-12.1-0.8-14.9c0.7-0.7,1.4-1.3,2.2-1.8c0,2.5,0,4.9,0,7
		c0,4.3-0.2,7.7-0.2,10.1C372.7,402.6,373.1,403,373.5,403.4z"/>
	<path class="st10" d="M373.5,403.4c-0.3-0.1-0.6-0.3-0.9-0.5c-0.1-0.1-0.2-0.1-0.3-0.2c-0.2-0.1-0.4-0.3-0.6-0.5
		c-0.1-0.1-0.2-0.2-0.3-0.3c-0.1-0.1-0.2-0.3-0.4-0.4c-3.2-3.9-3.3-12-0.8-14.9c0.7-0.7,1.4-1.3,2.2-1.8c0,2.5,0,4.9,0,7
		c-1.2,3-1.8,7.4-0.2,10.1C372.7,402.6,373.1,403,373.5,403.4z"/>
	<path class="st14" d="M377.7,317.3c-0.3-0.2-0.6-0.3-1-0.5l0,0c-0.7-0.4-1.4-0.9-2.2-1.3l0,0c-0.6-0.3-1.2-0.6-1.9-0.8
		c0-0.1,0.1-0.2,0.1-0.2l0,0c0.3,0.2,0.7,0.4,1,0.6l1.3,0.8l0,0c0,0,0.1,0.1,0.2,0.1s0.1,0.1,0.2,0.1c0.1,0.1,0.2,0.2,0.4,0.2
		c0.2,0.1,0.3,0.2,0.5,0.3C376.8,316.8,377.2,317.1,377.7,317.3z"/>
	<path class="st10" d="M376.7,316.8c-0.7-0.4-1.4-0.9-2.2-1.3l0,0c-0.6-0.3-1.2-0.6-1.9-0.8h-0.1c0-0.1,0.1-0.2,0.1-0.3l0,0h0.1
		c0.3,0.2,0.7,0.4,1,0.6l1.3,0.8c0.1,0,0.1,0.1,0.2,0.1s0.1,0.1,0.2,0.1c0.1,0.1,0.2,0.2,0.4,0.2c0.2,0.1,0.3,0.2,0.5,0.3
		C376.4,316.6,376.6,316.7,376.7,316.8z"/>
	<path class="st14" d="M342.2,397.5c-0.2,1.5-0.9,3.2-1.8,4.8h-6.7c-1.2-1.3-1.6-1.9-1.6-1.9s0.5-2.8-0.3-4.7
		c-0.1-0.3-0.3-0.7-0.6-0.9c-0.2-0.2-0.4-0.4-0.7-0.6c-0.1,0-0.2-0.1-0.3-0.2c-0.1-0.1-0.3-0.1-0.4-0.2h-0.1
		c-0.6-0.2-1.2-0.3-1.8-0.4l0,0c-0.4,0-0.8,0-1.2,0c-0.6,0-1,0.1-1,0.1l0,0l0,0c0.1-0.2,0.2-0.3,0.3-0.5c2.5-3.2,5-3.8,8.5-3.7
		c0.1,0,0.2,0,0.3,0c0.2,0,0.3,0,0.5,0.1c0.5,0.1,1,0.2,1.5,0.4c0.2,0.1,0.4,0.2,0.7,0.3c0.1,0.1,0.2,0.1,0.3,0.2
		c0.1,0,0.2,0.1,0.3,0.1l0,0c0.7,0.4,1.4,0.9,1.9,1.5C341.6,393.2,342.6,395.2,342.2,397.5z"/>
	<path class="st10" d="M340.3,391.8c-2.4-1.2-5.2-1.3-7.7-0.3c-1,0.6-1.8,1.4-2.4,2.3c-1.5-0.5-3-0.6-4.5-0.4
		c2.6-3.7,5.3-4.3,8.9-4.2C336.7,389.4,338.8,390.3,340.3,391.8z"/>
	<path class="st14" d="M354,329.7c-6.5,0-14.2,5.8-15.5,8.4s-1.8,7.7-0.7,10.9c2.5,7.1,13.5,10.7,17.2,9.6c3.7-1,10.5-6.9,11.6-10.9
		C368.6,340.9,360.8,329.7,354,329.7z"/>
	<path class="st10" d="M347.5,357.6c-4-1.6-8.3-4.4-9.8-8.6c-1.1-3.1-0.6-8.2,0.7-10.9c1.2-2.6,9-8.5,15.5-8.4
		c2.1,0,4.2,1.1,6.1,2.7c-3.7,0.5-9.9,1.6-12.5,4.1c-3.9,3.7-5.6,8.9-5.2,12.7C342.7,351.7,345.5,355.4,347.5,357.6z"/>
	<path class="st14" d="M325,355.9c-1.3,0.1-2.6-0.2-3.8-0.8c-2.6-1.7-4.3-7,0.6-10.2c1.8-1.2,4.1-1,5.7,0.2c2.3,1.5,3.9,4.6,3,6.9
		C329.7,354.3,327.6,355.9,325,355.9z"/>
	<path class="st10" d="M325,355.9c-1.3,0.1-2.6-0.2-3.8-0.8c-2.6-1.7-4.3-7,0.6-10.2c1.8-1.2,4.1-1,5.7,0.2
		c-1.5,0.2-4.1,0.9-5.3,3.2c-1.9,3.3-0.2,5.4,0.7,6.5C323.7,355.3,324.4,355.7,325,355.9z"/>
	<path class="st7" d="M394.3,365.5c-0.3,0.5-0.9,0.9-1.4,0.9c-0.9,0.1-1.6-0.5-1.6-1.2c0-0.6,0.2-1.2,0.8-1.5c0.4-0.3,1-0.2,1.4,0.1
		C394.1,364.2,394.4,364.9,394.3,365.5z"/>
	<path class="st10" d="M392.3,366.2c0.1,0.2,0.3,0.3,0.5,0.3c-0.9,0.1-1.6-0.5-1.6-1.2c0-0.6,0.2-1.2,0.8-1.5c0.4-0.3,1-0.2,1.4,0.1
		c-0.6,0-1,0.3-1.3,0.7C391.8,365.1,391.8,365.8,392.3,366.2z"/>
	<path class="st7" d="M321.7,362.5c2.2,0.2,4.5,2.8,3.2,4.2c-1.2,1.4-3.4,1.9-4.8-0.2C318.7,364.6,320.8,362.5,321.7,362.5z"/>
	<path class="st14" d="M323.4,367.7c-1.3,0.4-2.6-0.1-3.3-1.1c-1.3-2,0.7-4.2,1.6-4.1c0.7,0,1.3,0.3,1.8,0.7
		c-0.8,0.1-1.4,0.6-1.8,1.3C321.1,365.5,321.9,367.3,323.4,367.7z"/>
</g>
<path class="st12" d="M274.1,423.1c-2.5-0.1-14.4-1.4-16.5-3.3c-5.7-5.2-9-8.6-9.5-11.9c-0.5-2.9,1.8-8.3,1.9-11.2
	c0-3,5.1-1.3,6.8-1.5c3.6-0.4,4.4,1.7,6.2,2.4c1.3,0.5,5.7-1.9,8.9,0.3s2.5,6,2.5,6s7.3,3.3,7.4,7.3
	C281.9,415.7,276.9,423.3,274.1,423.1z"/>
<g>
	<path d="M71.5,168.4c0.2-0.8,0.7-1.3,1.3-1.3h9.3c0.2,0,0.2,0.2,0.2,0.5c0,0.6-0.3,2.1-1,4.5s-1,5-1,7.8c0,1.3,0.1,2.7,0.4,4.2
		s0.5,2.7,0.9,3.7c0.3,1,0.7,1.8,1.2,2.5s1.1,1.1,1.7,1.1c0.4,0,0.7-0.1,1-0.4c0.3-0.3,0.6-0.6,0.8-1c0.2-0.4,0.6-1.2,1.1-2.5
		c0.4-0.9,0.8-2,1-3.4c0.3-1.4,0.5-2.3,0.5-2.9s0.1-1.2,0.1-1.8c0-3.7-0.2-6.2-0.6-7.3L87,168c-0.1-0.2-0.1-0.4,0-0.6
		c0.2-0.2,0.4-0.3,0.7-0.3h8.4c0.3,0,0.6,0.3,0.8,0.8c0.3,0.5,0.6,1.3,0.8,2.4c0.3,1.1,0.4,2.3,0.5,3.7s0.1,3.1,0.1,5.1
		c0,2.2-0.3,4.4-1,6.6c-0.6,2.2-1.5,4.2-2.4,6.1s-1.8,3.3-2.5,4.3s-1.8,2.2-3.4,3.8s-3.2,2.3-4.9,2.3c-0.9,0-1.8-0.3-2.8-0.9
		c-1-0.6-2-1.3-2.9-2.1s-1.6-1.6-2.1-2.1c-0.5-0.6-1.3-1.7-2.4-3.5S72,190,71.4,188c-0.5-2-0.9-3.8-1.1-5.5S70,179,70,177.1
		c0-2,0.1-3.7,0.3-5.2l0.1-0.4l0.7-1.4v-0.3L71.5,168.4z"/>
	<path d="M103.8,169.9c0.2-1.2,0.5-2,0.7-2.3s0.8-0.5,1.7-0.5h7.7c0.4,0,0.6,0.3,0.6,1c0,0.5-0.2,1.3-0.6,2.5s-0.7,2.9-1,5.1
		c-0.3,2.2-0.4,5.1-0.4,8.6c0,0.3,0,0.8,0,1.5s0,1.2,0,1.6c0,1.4,0.1,2.7,0.2,4c0.2,1.3,0.4,2.5,0.6,3.8c0.3,1.3,0.5,2.3,0.6,3.2
		c0.2,0.9,0.2,1.5,0.2,1.9s-0.1,0.6-0.2,0.6h-9.7c-0.6,0-1-0.9-1.2-2.8c-0.3-1.8-0.4-4.2-0.4-7.1v-0.9v-0.8v-0.8v-0.7v-0.6v-0.5
		c0-0.6,0-1.1,0-1.7c0-0.6,0-1.2,0-1.8v-0.6c0-2.7,0.1-4.7,0.2-6s0.3-2.8,0.5-4.6L103.8,169.9z"/>
	<path d="M120.7,171.7c0.3-1.8,0.8-3.1,1.3-3.7c0.5-0.6,1.5-0.9,2.9-0.9H141c0.5,0,0.9,0.1,1.3,0.2c0.4,0.1,0.6,0.3,0.8,0.5
		c0.1,0.2,0.1,0.4,0,0.6c-0.5,1.2-1,2.3-1.7,3.4l-1.1,1.8c-0.2,0-0.3-0.1-0.4-0.1c-0.1,0-0.6-0.2-1.5-0.6c-0.9-0.3-1.6-0.5-2.2-0.6
		c-0.5-0.1-0.9-0.1-1.1-0.1c-0.2,0-0.4,0-0.8,0c-1.7,0-3.1,0.4-4,1.1c-0.9,0.7-1.5,1.5-1.8,2.4c-0.2,0.9-0.4,1.5-0.4,1.8
		c0,0.8,0.5,1.2,1.4,1.2c0.3,0,0.6,0,0.8,0l2.1-0.5c0.3-0.1,0.6-0.2,0.9-0.2c0.3,0,0.7-0.1,1.2-0.1h0.6c1.6,0,2.6,0.1,3.2,0.3
		c0.5,0.2,0.8,0.6,0.8,1.2c0,0.3-0.1,0.7-0.2,1.2c-0.2,0.5-0.3,1.1-0.5,1.6s-0.4,0.9-0.5,1.3c-0.2,0.4-0.4,0.8-0.7,1.2l-0.4,0.6
		c-0.2,0.2-0.5,0.2-0.8,0.2c-0.5,0-1.1-0.1-1.9-0.4c-0.8-0.3-1.2-0.4-1.4-0.4c-0.5,0-0.8,0.1-1.1,0.2c-0.3,0.1-0.7,0.4-1.4,0.9
		s-1.1,1-1.4,1.7c-0.3,0.7-0.4,1.5-0.4,2.5c0,1.5,0.5,2.8,1.5,3.8s2.2,1.5,3.8,1.5c0.3,0,0.7,0,1.2-0.1s1-0.2,1.6-0.3
		c0.6-0.2,1.1-0.3,1.5-0.5l2-1.1c0.1-0.1,0.3-0.1,0.6,0.2c0.3,0.2,0.6,0.8,1,1.6l1.5,3.4l0.5,1.4c0.1,0.4,0.1,0.7-0.1,0.9
		c-0.2,0.2-0.4,0.3-0.6,0.3h-22c-0.6,0-1-0.9-1.2-2.8c-0.2-1.9-0.2-6.5-0.2-14v-1.4c0-1.9,0-3.2,0.1-4.1c0.1-0.8,0.3-2.1,0.5-3.7
		v-0.2L120.7,171.7z"/>
	<path d="M146.1,168.8c0.1-0.6,0.2-1,0.4-1.3s0.4-0.4,0.7-0.4h8.1c0.2,0,0.3,0.2,0.3,0.6c-0.1,1.1-0.1,2.5-0.2,4.4
		c-0.1,1.9-0.1,3.2-0.1,4c0,0.7,0,1.2,0,1.6c0,0.3,0,0.7,0,1.1c0,0.4,0,0.7,0,1v0.5l0.3,3.1c0.2,1.5,0.3,2.5,0.4,3s0.4,1,0.9,1.6
		c0.8-0.6,1.4-1.4,1.8-2.3c0.4-0.9,0.7-2.1,1-3.6s0.4-2.8,0.5-3.8c0.1-1.1,0.1-1.9,0.1-2.6c0-2.5,0-4.2-0.1-4.9
		c-0.1-0.8-0.2-1.6-0.4-2.4c-0.1-0.3,0-0.6,0.1-0.8s0.3-0.3,0.5-0.3h8.4c0.6,0,0.9,0.4,0.9,1.2c0,0.5-0.1,1.2-0.2,2.1
		c-0.2,0.9-0.2,1.7-0.3,2.4c0,0.7,0,1.3,0,1.9v4.6l0.2,3v0.3l0.6,3.2c0,0.2,0.1,0.4,0.2,0.7c0.1,0.3,0.2,0.6,0.4,0.9
		c0.3,0.4,0.6,0.5,1.1,0.4c0.3-0.1,0.7-0.5,1-1.1s0.5-1.5,0.7-2.8l0.6-3.5v-0.5l0.1-1.6c0-2.6-0.1-4.6-0.3-6.1l-0.6-3.7
		c-0.1-0.6,0-1,0.2-1.2s0.4-0.3,0.5-0.3h7.7c0.5,0,0.9,0.4,1.2,1.1c0.3,0.7,0.5,2,0.5,3.7v0.7v0.8c0,0.4,0,0.9,0,1.5
		s-0.1,1.3-0.2,2.3c0,1-0.1,2.1-0.3,3.1s-0.6,2.6-1.2,4.8c-0.6,2.2-1.4,4.5-2.5,6.9s-2.4,4.6-4,6.8s-2.9,3.3-4,3.3s-2-0.6-2.8-1.8
		s-1.4-2.3-1.7-3.4c-0.4-1.1-0.7-2-1-2.5c-0.3-0.6-0.6-1-0.9-1.1c-0.3-0.2-0.5-0.2-0.7-0.2c-0.4,0-0.8,0.2-1.1,0.7
		c-0.3,0.4-0.6,1-1,1.6c-0.3,0.6-0.7,1.4-1.1,2.2l-0.8,1.6l-0.4,0.8c-1.1,1.5-2.1,2.2-3,2.2c-0.8,0-1.6-0.5-2.6-1.5s-1.9-2.3-3-3.9
		c-1-1.6-1.8-2.9-2.3-4c-0.5-1-1-2.4-1.6-4c-0.5-1.6-1-3.4-1.3-5.3c-0.3-1.9-0.5-4.1-0.5-6.6c0-1.9,0.1-4.1,0.4-6.7v-0.5
		L146.1,168.8z"/>
	<path d="M201.6,174.1c0-2.7,0.2-4.5,0.5-5.5s0.8-1.5,1.3-1.5h7.6c0.7,0,1.2,0.1,1.7,0.4s0.9,0.6,1.4,1.2c0.5,0.6,1,1.3,1.5,2.3
		c0.5,0.9,1,2,1.5,3.1l1.3,2.9l0.8-1.7c1.8-3.7,3.1-5.9,4-6.8c0.9-0.9,2.3-1.3,4.2-1.3h5.6c0.8,0,1.4,1.1,1.8,3.4
		c0.4,2.3,0.5,6.9,0.5,13.8c0,1.4,0,2.7-0.1,3.8s-0.2,3-0.5,5.7c-0.3,2.6-0.6,4.5-1,5.5c-0.4,1.1-1,1.6-1.8,1.6h-8.4
		c-0.2,0-0.3-0.1-0.4-0.2c-0.1-0.1-0.2-0.3-0.2-0.5s0.3-1.2,0.9-3c0.6-1.8,1-3.8,1.3-5.7c0.3-2,0.4-4.6,0.4-7.8v-1.2
		c0-0.6,0-1.1,0-1.7c0-0.6-0.1-1.2-0.2-1.9c-0.3,0.5-0.7,1.2-1.2,2s-0.9,1.7-1.4,2.7s-0.9,2-1.2,3.2s-0.7,2.4-0.9,3.6
		c-0.2,1.2-0.5,2.1-0.8,2.5c-0.3,0.5-0.8,0.7-1.5,0.7c-0.5,0-1.1-0.1-1.8-0.3s-1.2-0.6-1.4-1.1c-0.2-0.6-0.5-1.7-0.9-3.3
		s-1-3.6-1.8-5.8l-0.5-1.2l-0.2-0.4c-0.2-0.5-0.4-0.9-0.6-1.2c-0.2-0.3-0.5-0.7-0.9-1.2c-0.2,1.7-0.3,3.2-0.3,4.7
		c0,1.7,0.1,3.6,0.4,5.6c0.2,2.1,0.4,3.6,0.6,4.7c0.2,1.1,0.4,2.2,0.7,3.3s0.4,1.9,0.4,2.5c0,0.7-0.3,1-1,1h-8.2
		c-0.5,0-0.9-1-1.2-2.9s-0.4-5.6-0.4-10.9l0.4-10.1L201.6,174.1z"/>
	<path d="M260.1,200.9h-1.6h-10.8c-2.1,0-3.8-0.9-5.3-2.7s-2.3-3.8-2.5-5.8s-0.3-3.2-0.3-3.6s0-0.7,0-0.9c0-2.4,0.3-4.6,0.9-6.6
		c0.6-2,1.2-3.7,1.8-5.1c0.6-1.3,1.3-2.6,2.2-3.8c0.8-1.2,1.8-2.2,2.8-3.1c1-0.9,2.2-1.7,3.5-2.2c1.3-0.6,2.6-0.8,3.9-0.8
		c1.2,0,2.5,0.3,3.7,0.8c1.3,0.5,2.6,1.4,4,2.7s2.6,2.6,3.4,4.1s1.4,2.7,1.7,3.6c0.3,0.9,0.7,2.4,1.3,4.5c0.5,2.1,0.8,4.4,0.8,6.9
		c0,3.6-0.8,6.5-2.5,8.5C265.4,199.4,263.1,200.5,260.1,200.9z M249.2,187.7c0,2,0.4,3.5,1.2,4.3s2.1,1.3,3.9,1.3
		c1.8,0,3-0.3,3.7-0.8c0.7-0.6,1.2-1.4,1.5-2.4c0.2-1,0.4-1.9,0.4-2.6c0-1.2-0.2-2.5-0.5-3.9c-0.3-1.5-0.5-2.4-0.6-2.7
		c-0.1-0.4-0.3-1-0.6-1.9c-0.3-0.9-0.6-1.6-0.8-1.9c-0.2-0.3-0.5-0.9-1-1.8c-0.5-0.8-1.1-1.1-1.8-1.1s-1.3,0.4-1.9,1.1
		c-0.5,0.8-0.9,1.4-1.2,2s-0.6,1.5-1.1,2.8c-0.4,1.3-0.8,2.6-1,3.9C249.3,185.2,249.2,186.4,249.2,187.7z"/>
	<path d="M273.7,179.8c0-4.8,0.2-8.2,0.6-10s1-2.7,1.8-2.7h17c0.5,0,1.1,0.1,1.6,0.2c0.6,0.2,1.2,0.4,1.9,0.8c0.7,0.4,1.5,1.1,2.4,2
		c0.9,1,1.4,2.4,1.4,4.4c0,0.5-0.1,1.2-0.2,2c-0.1,0.9-0.6,1.9-1.5,3.1c-0.8,1.1-2.2,2.4-4.1,3.9c-0.3,0.3-0.4,0.4-0.4,0.6
		c0,0.2,0.1,0.4,0.2,0.6l2.3,2.5c0.3,0.4,0.8,1,1.3,1.7c0.5,0.8,1,1.6,1.5,2.5s1,2.1,1.5,3.8c0.5,1.6,0.8,3,0.8,4.2
		c0,1-0.3,1.5-0.8,1.5h-8.6l-0.5-0.1c-0.2-0.1-0.3-0.4-0.4-0.8c-0.1-0.4-0.4-1.8-1-4.2l-0.1-0.5c-0.8-2.4-1.4-4-1.8-4.7
		c-0.4-0.8-0.8-1.3-1.2-1.6c-0.4-0.3-0.8-0.4-1.2-0.4c-0.4,0-0.8,0.1-1.2,0.3c-0.4,0.2-0.7,0.6-0.9,1.1c-0.2,0.5-0.4,1.3-0.4,2.3
		c0,0.4,0,0.8,0,1.2c0.1,0.4,0.2,0.8,0.2,1l0.4,2c0.2,0.5,0.3,1.2,0.5,2s0.3,1.5,0.3,1.9c0,0.5-0.1,0.8-0.3,0.8H275
		c-0.3,0-0.6-0.6-0.8-1.9c-0.2-1.3-0.3-3.7-0.3-7.2v-12.3H273.7z M283,178.3v2.1c0,0.8,0.5,1.1,1.5,1.1c0.3,0,0.7-0.1,1.1-0.3
		s1-0.5,1.8-1.1c0.8-0.5,1.4-1.2,2-2c0.5-0.8,0.8-1.6,0.8-2.3c0-0.4-0.1-0.8-0.3-1.4c-0.2-0.5-0.6-1-1.1-1.4s-1-0.6-1.5-0.6
		c-1.3,0-2.2,0.2-2.8,0.7c-0.6,0.5-1,1.3-1.1,2.4L283,178.3z"/>
	<path d="M306.5,171.7c0.3-1.8,0.8-3.1,1.3-3.7c0.5-0.6,1.5-0.9,2.9-0.9h16.1c0.5,0,0.9,0.1,1.3,0.2c0.4,0.1,0.6,0.3,0.8,0.5
		c0.1,0.2,0.1,0.4,0,0.6c-0.5,1.2-1,2.3-1.7,3.4l-1.1,1.8c-0.2,0-0.3-0.1-0.4-0.1s-0.6-0.2-1.5-0.6c-0.9-0.3-1.6-0.5-2.2-0.6
		c-0.5-0.1-0.9-0.1-1.1-0.1s-0.4,0-0.8,0c-1.7,0-3.1,0.4-4,1.1c-0.9,0.7-1.5,1.5-1.8,2.4c-0.2,0.9-0.4,1.5-0.4,1.8
		c0,0.8,0.5,1.2,1.4,1.2c0.3,0,0.6,0,0.8,0l2.1-0.5c0.3-0.1,0.6-0.2,0.9-0.2s0.7-0.1,1.2-0.1h0.6c1.6,0,2.6,0.1,3.2,0.3
		c0.5,0.2,0.8,0.6,0.8,1.2c0,0.3-0.1,0.7-0.2,1.2c-0.2,0.5-0.3,1.1-0.5,1.6s-0.4,0.9-0.5,1.3c-0.2,0.4-0.4,0.8-0.7,1.2l-0.4,0.6
		c-0.2,0.2-0.5,0.2-0.8,0.2c-0.5,0-1.1-0.1-1.9-0.4c-0.8-0.3-1.2-0.4-1.4-0.4c-0.5,0-0.8,0.1-1.1,0.2c-0.3,0.1-0.7,0.4-1.4,0.9
		c-0.7,0.5-1.1,1-1.4,1.7s-0.4,1.5-0.4,2.5c0,1.5,0.5,2.8,1.5,3.8s2.2,1.5,3.8,1.5c0.3,0,0.7,0,1.2-0.1s1-0.2,1.6-0.3
		c0.6-0.2,1.1-0.3,1.5-0.5l2-1.1c0.1-0.1,0.3-0.1,0.6,0.2c0.3,0.2,0.6,0.8,1,1.6l1.5,3.4l0.5,1.4c0.1,0.4,0.1,0.7-0.1,0.9
		s-0.4,0.3-0.6,0.3h-22c-0.6,0-1-0.9-1.2-2.8c-0.2-1.9-0.2-6.5-0.2-14v-1.4c0-1.9,0-3.2,0.1-4.1c0.1-0.8,0.3-2.1,0.5-3.7v-0.2
		L306.5,171.7z"/>
</g>
<path class="st16" d="M169.6,242.4v16.5h32.3v6.4l18.7-14.8c-6.3-5.4-12.3-10.6-18.2-15.7l-0.5,5.6L169.6,242.4z"/>
</svg>
